<svg xmlns="http://www.w3.org/2000/svg">
<defs>
<font id="UTMSwissCondensed-Bold" horiz-adv-x="1024" >
  <font-face 
    font-family="UTM Swiss Condensed"
    font-weight="700"
    font-stretch="normal"
    units-per-em="2048"
    panose-1="2 0 5 0 0 0 0 0 0 0"
    ascent="1638"
    descent="-410"
    x-height="1157"
    cap-height="1540"
    bbox="-61 -483 6029 2341"
    underline-thickness="150"
    underline-position="-292"
    unicode-range="U+0020-2026"
  />
<missing-glyph horiz-adv-x="6492" 
d="M4507 1700h9q36 -9 36 -45q0 -10 -32 -49h-27q0 21 27 47l3 9q-5 10 -10 12h-9q-7 0 -9 -17h-29q6 43 41 43zM3232 1675l28 -27q0 -13 -39 -26h-18l-56 11l-11 -11l-27 22q11 25 42 25h10l40 -9h2q9 0 29 15zM1747 1644h136v-51h-89v-65h85v-51h-85v-111l-5 -5h-47v278z
M2405 1644h42l5 -5v-67h28v-44h-28v-162l-5 -5h-48v167h-24v44h24v67zM2851 1644h40l4 -5v-81h3q22 22 51 22h3q55 0 78 -62l3 -33v-124h-50v99q0 70 -40 70h-7q-41 0 -41 -75v-94h-49v278zM3405 1644h47l5 -5v-190q9 -45 43 -45q42 7 42 51v184l4 5h48v-186q0 -73 -63 -97
q-15 -6 -34 -6q-45 0 -79 47q-13 20 -13 49v193zM3630 1644h152v-51h-54v-232h-51v232h-52v46zM3808 1644h68q7 -4 79 -216h2l76 216h70v-283h-52v209h-1l-71 -209h-42q-4 0 -56 157l-18 52h-2v-209h-53v283zM4897 1644h50v-283h-43l-4 5v9l2 2l-2 12q-28 -34 -75 -34
q-64 0 -96 78l-5 34v2q0 81 88 108l22 3q34 0 61 -28h2v92zM3268 1599h34l4 -5v-42h-42v-191h-47v21q-22 -27 -56 -27q-86 12 -86 83v134h50v-89q0 -68 24 -74l18 -5h5q25 0 38 32l2 22v114h52v22zM4626 1599v-47h-29v-191h-45v22h-3q-14 -28 -54 -28q-65 0 -83 67l-2 25
v125h49v-103q0 -43 19 -58l20 -7h9q40 0 40 60v108h25q4 0 4 25l3 2h47zM2025 1580q65 0 99 -67q8 -15 12 -46q0 -76 -86 -110l-32 -2q-59 0 -96 63q-12 18 -12 45v8q0 81 97 109h18zM2267 1580h3q71 0 80 -88v-131h-49v103q0 66 -40 66h-5q-42 0 -42 -66v-103h-50v211h44
v-18q28 26 59 26zM2703 1580h6q69 0 101 -77h-58q-15 27 -40 27h-16q-51 -13 -51 -53l-3 -13q12 -60 58 -60h9q22 0 45 24h39l2 3h2l2 -3l2 3l3 -3l2 3l2 -7q-31 -69 -105 -69q-73 0 -106 81l-4 31v2q0 73 74 103q15 8 36 8zM4305 1580h2q47 0 67 -52v-12h-49q0 14 -16 14

<glyph glyph-name=".notdef" horiz-adv-x="6492" 
d="M4507 1700h9q36 -9 36 -45q0 -10 -32 -49h-27q0 21 27 47l3 9q-5 10 -10 12h-9q-7 0 -9 -17h-29q6 43 41 43zM3232 1675l28 -27q0 -13 -39 -26h-18l-56 11l-11 -11l-27 22q11 25 42 25h10l40 -9h2q9 0 29 15zM1747 1644h136v-51h-89v-65h85v-51h-85v-111l-5 -5h-47v278z
M2405 1644h42l5 -5v-67h28v-44h-28v-162l-5 -5h-48v167h-24v44h24v67zM2851 1644h40l4 -5v-81h3q22 22 51 22h3q55 0 78 -62l3 -33v-124h-50v99q0 70 -40 70h-7q-41 0 -41 -75v-94h-49v278zM3405 1644h47l5 -5v-190q9 -45 43 -45q42 7 42 51v184l4 5h48v-186q0 -73 -63 -97
q-15 -6 -34 -6q-45 0 -79 47q-13 20 -13 49v193zM3630 1644h152v-51h-54v-232h-51v232h-52v46zM3808 1644h68q7 -4 79 -216h2l76 216h70v-283h-52v209h-1l-71 -209h-42q-4 0 -56 157l-18 52h-2v-209h-53v283zM4897 1644h50v-283h-43l-4 5v9l2 2l-2 12q-28 -34 -75 -34
q-64 0 -96 78l-5 34v2q0 81 88 108l22 3q34 0 61 -28h2v92zM3268 1599h34l4 -5v-42h-42v-191h-47v21q-22 -27 -56 -27q-86 12 -86 83v134h50v-89q0 -68 24 -74l18 -5h5q25 0 38 32l2 22v114h52v22zM4626 1599v-47h-29v-191h-45v22h-3q-14 -28 -54 -28q-65 0 -83 67l-2 25
v125h49v-103q0 -43 19 -58l20 -7h9q40 0 40 60v108h25q4 0 4 25l3 2h47zM2025 1580q65 0 99 -67q8 -15 12 -46q0 -76 -86 -110l-32 -2q-59 0 -96 63q-12 18 -12 45v8q0 81 97 109h18zM2267 1580h3q71 0 80 -88v-131h-49v103q0 66 -40 66h-5q-42 0 -42 -66v-103h-50v211h44
v-18q28 26 59 26zM2703 1580h6q69 0 101 -77h-58q-15 27 -40 27h-16q-51 -13 -51 -53l-3 -13q12 -60 58 -60h9q22 0 45 24h39l2 3h2l2 -3l2 3l3 -3l2 3l2 -7q-31 -69 -105 -69q-73 0 -106 81l-4 31v2q0 73 74 103q15 8 36 8zM4305 1580h2q47 0 67 -52v-12h-49q0 14 -16 14
h-4q-13 0 -18 -12v-11q0 -8 65 -30q29 -16 29 -51q0 -50 -59 -69l-22 -2q-72 10 -72 71h52q0 -17 25 -22h4q18 0 23 20q0 19 -65 39q-32 22 -32 50q0 57 70 67zM5321 1580q53 0 74 -55q6 -16 6 -56v-108h-49v97q0 72 -38 72h-11q-31 0 -38 -47v-122h-49v5h-3l3 2v204h45v-18
q23 26 60 26zM5541 1580h4q39 0 66 -35v16l-2 2l2 9h45v-179q0 -84 -81 -113l-32 -4h-7q-66 0 -99 69h57q23 -19 42 -20h14q20 0 41 19q13 11 20 45h-2q-32 -34 -70 -34q-55 0 -93 60q-9 16 -13 54q0 76 84 108zM4985 1572h50v-117q6 -51 39 -51h6q44 0 44 81v87h49v-211
h-45l-3 9h3l-3 3v4l3 2v3h-4q0 -20 -54 -27h-3q-56 0 -81 64l-1 73v80zM1960 1464q10 -60 60 -60h7q57 13 57 56v13q-13 57 -57 57h-4q-56 0 -63 -66zM4773 1467q13 -63 59 -63h4q56 0 64 65q0 43 -50 61h-20q-36 0 -54 -49zM5485 1467q7 -63 62 -63h5q57 11 57 63t-57 63
h-13q-54 -14 -54 -54v-9zM5058 1334h50v-49h-50v49zM2308 1146q42 -9 42 -42v-3q0 -15 -31 -52h-27q0 21 29 49v6q0 11 -6 13h-12q-9 -4 -9 -16h-27v5q0 27 31 37zM4504 1092q88 0 133 -85h-58q-36 36 -77 36q-52 0 -83 -59q-9 -18 -9 -40q0 -68 77 -95l17 -1q34 0 72 33h58
q-42 -83 -132 -83q-89 0 -135 96q-9 27 -9 54q0 84 86 131q27 13 60 13zM4805 1092q55 0 99 -40q45 -45 45 -99v-18q0 -77 -88 -126q-31 -11 -61 -11q-84 0 -131 87q-13 28 -13 52v16q0 84 95 130q27 9 54 9zM3463 1090h2l45 -9h3q10 0 25 9l17 -31q-17 -16 -33 -16h-3
l-51 9l-20 -7l-19 31q17 14 34 14zM1985 1088h18q113 0 124 -23q23 -22 23 -54q-9 -49 -28 -49v-5q45 -19 45 -56v-16q0 -54 -66 -76l-51 -4h-65v283zM3739 1088h52v-187q5 -53 43 -53q27 0 42 33l3 26v176l4 5h42l5 -5v-148q0 -101 -38 -114q-23 -23 -61 -23q-53 0 -88 65
l-4 47v178zM3984 1088h56q4 0 117 -204h4v204h48l4 -5v-278h-56q-28 41 -120 205h-2v-205h-51v283zM4267 1088h51v-283h-51v283zM4992 1088h8q148 0 166 -35q23 -10 45 -64l5 -32v-9l2 -2q0 -81 -79 -128q-33 -13 -94 -13h-53v283zM5262 1088h147v-52h-99v-65h96v-49h-96
v-64l4 -4h95v-49h-151v278zM4709 951v-9q0 -66 76 -93l18 -1q65 0 92 74l2 17v14q0 52 -56 81q-12 6 -38 9q-63 0 -92 -72zM2036 1036v-58h9q52 0 52 24l2 12q-9 22 -27 22h-36zM5043 1036v-178l2 -2v-2q99 0 117 66l2 13v24q0 30 -31 59q-24 20 -75 20h-15zM2296 1023h5
q36 0 68 -34v27h47v-211h-47v27q-35 -34 -77 -34q-71 0 -97 83l-4 31q0 77 81 108zM2557 1023h3q71 0 80 -88v-130h-49v110q0 58 -40 58h-10q-33 0 -38 -53v-115h-49v211h45v-18q26 25 58 25zM2777 1023h4q43 0 68 -34v27h45v-189q0 -82 -99 -108h-16q-70 0 -103 71h56
q25 -22 42 -22h14q50 0 61 67q-31 -37 -72 -37q-59 0 -97 70l-7 38v14q0 68 81 100zM3129 1023h2q41 0 58 -32h3q30 32 65 32h4q55 0 76 -48q8 -21 8 -38v-132h-50v119q0 38 -22 47l-12 2h-14q-31 0 -35 -56v-112h-49v117q0 51 -41 51h-8q-30 0 -34 -49v-119h-52v211h47v-18
h3q6 21 51 25zM3483 1023q45 0 72 -36v29h45v-211h-45v27q-34 -34 -74 -34q-72 0 -99 79l-4 35q0 78 81 108zM2243 901q0 -42 58 -53h4q43 0 59 40l2 13v19q-11 53 -54 53h-14q-38 0 -55 -49v-23zM2723 910q0 -41 40 -58l18 -4h5q45 0 60 49v20q-10 56 -56 56h-11
q-47 0 -56 -63zM3429 912v-11q14 -53 54 -53h14q56 10 56 55v9q0 40 -36 57l-17 4h-10q-61 -7 -61 -61zM2036 929v-71q0 -4 7 -4q74 0 74 39q0 29 -45 36h-36zM4138 587l23 -24l-49 -48q-17 11 -25 23zM2759 564l81 -46q0 -13 -21 -36l-83 46q18 36 23 36zM4027 535h36
l53 -52h-52l-20 23l-22 -23h-52q52 52 57 52zM4574 535h38l54 -52h-51l-23 23h-2q0 -5 -18 -23h-52zM1895 528h50q7 -3 45 -117l33 -95q8 7 31 86l47 126h52v-1l-108 -281h-42zM2409 528h49v-46h-49v46zM2596 528h44l5 -4v-278h-49v282zM3517 528h43l4 -4v-67h30v-45h-30
v-166h-51v166h-25v45h25v67zM3620 528h50v-84h1q23 20 53 20h2q55 0 78 -61l3 -33v-124h-50v99q0 70 -37 70h-10q-40 0 -40 -75v-94h-50v282zM3849 528h49v-46h-49v46zM4197 528h43l5 -4v-67h28v-45h-28v-166h-52v166h-25v45h25v67zM4394 528h50v-282h-50v282zM5086 528h49
v-282h-49v282zM5429 528h49v-46h-49v46zM2788 464h5q79 0 105 -88l2 -20v-9q0 -72 -81 -103l-33 -5q-73 0 -106 84l-4 27q0 83 89 112zM3033 464h4q50 0 74 -52q7 -21 7 -69v-97h-52v126q-7 43 -36 43h-9q-36 0 -40 -50v-119h-51v211h46v-18q25 25 57 25zM3257 464h4
q44 0 61 -34h2v27h47v-177q0 -88 -85 -117l-26 -2h-5q-70 0 -102 69h50l35 -17l15 -2h13q48 0 58 62q-31 -34 -69 -34q-59 0 -94 66q-10 20 -12 51q0 73 83 106zM4042 464h2q79 0 106 -90l2 -22l-2 -23h-164q14 -38 42 -38l14 -2q28 0 47 18h55v-2q-34 -66 -104 -66
q-73 0 -106 84l-1 24v7q0 42 31 76q32 34 78 34zM4581 464h4q39 0 67 -34h3v27h45v-211h-45v27h-3q-32 -34 -73 -34q-68 0 -97 77l-4 31v12q0 74 80 103zM4850 464h7q84 0 103 -110l-2 -2v-12q0 -56 -63 -92q-20 -9 -45 -9q-32 0 -61 27v-85l-4 -4h-48v280h48v-24
q29 31 65 31zM5272 464q42 0 71 -34v27h48v-211h-48v27q-33 -34 -73 -34q-88 0 -104 113q0 73 70 105q15 7 36 7zM2182 457h48v-117q3 -51 40 -51h5q42 0 42 74v94h49v-211h-45v20h-4q0 -19 -54 -27h-2q-53 0 -79 59q-4 30 -4 85v70zM2409 457h49v-211h-49v211zM3849 457h49
v-211h-49v211zM5429 457h49v-211h-49v211zM2727 359v-14q13 -56 57 -56h4q57 0 63 65q-12 61 -56 61h-11q-57 -14 -57 -56zM3201 345q14 -56 56 -56h11q46 0 56 63v2q-12 61 -56 61h-13q-38 0 -54 -50v-20zM3984 374h116v2q-15 39 -56 39h-7q-33 0 -53 -41zM4527 347
q12 -58 58 -58h5q50 0 62 54v9q-9 63 -54 63h-15q-54 -13 -54 -54zM4785 350q11 -61 58 -61h2q49 0 64 51v19q0 37 -48 56h-20q-45 0 -56 -63v-2zM5218 345q10 -56 63 -56q41 0 58 40l3 14v13q0 47 -50 59h-18q-40 0 -56 -52v-18zM4568 215h49v-45h-49v45zM5258 215h49v-45
h-49v45zM3915 53h4q33 0 41 -43v-1q0 -14 -23 -36l-9 -14h-27q0 21 27 47l2 3v1q-3 17 -9 17h-9q-7 0 -9 -17h-29q6 43 41 43zM2779 38l50 -52l-25 -16l-50 45zM1637 6h4q71 -41 81 -52l-20 -31q-83 42 -83 50zM4639 6l83 -49l-18 -34q-9 0 -87 47q15 31 22 36zM5680 4
l19 -36l-88 -45l-19 34l88 49v-2zM2452 -16h49v-16l5 -5h13v-31h-13l-5 -4v-240h-45v27q-31 -35 -77 -35q-68 0 -98 90l-2 23q0 88 96 112h14q31 0 63 -27v50l-5 4h-42v31h47v21zM2716 -23h38l54 -52h-51l-22 23l-21 -23h-52zM3827 -23h31q12 0 61 -52h-52l-22 23
q-18 -18 -18 -23h-56v3zM1347 -30h153v-52h-54v-230h-47l-4 5v210l2 2v2l-2 2l2 3l-2 2l2 2l-2 2h-52v47zM1969 -30h45v-63l2 -2l-2 -2v-3l2 -1l-2 -3v-2l2 -2v-2l-2 -3l2 -2h2q17 20 50 20h2q51 0 74 -50q6 -14 6 -36v-131h-49v109q0 58 -38 58h-9q-40 0 -40 -73v-94h-50
v277zM2541 -30h45l5 -5v-42h-50v47zM3201 -30h50v-170l67 99h60l-76 -102l87 -108v-1h-67q-10 18 -71 99v-99h-50v282zM3472 -30v-85q23 20 51 20q55 0 77 -47q9 -17 9 -67v-103h-51v114q0 53 -39 53h-10q-31 0 -37 -46v-121h-49v271l-2 2v2l2 2l-2 3l2 2h49zM3652 -30h49
v-47h-49v47zM4312 -30h49v-92q26 27 65 27h3q72 0 100 -81l5 -31q0 -64 -61 -104q-29 -9 -47 -9q-39 0 -69 35v-27h-45v282zM5391 -30h49v-85h2q22 20 52 20h2q58 0 79 -63l2 -36v-118h-50v95q0 71 -31 71l-9 1h-11q-36 0 -36 -68v-99h-49v282zM1615 -95h2v-50h-5
q-40 0 -40 -49v-118h-50v211h45v-18q17 24 48 24zM1839 -95q69 0 83 -74v-143h-49v117q-5 50 -39 50h-6q-43 0 -43 -72v-95h-50v211h48v-18q24 24 56 24zM2739 -95q69 0 101 -81l5 -33q-3 -21 -8 -21h-161q16 -40 59 -40q24 0 46 18h55q-32 -68 -104 -68q-78 0 -108 90v32
q0 70 85 101zM3843 -95h4q73 0 103 -83l2 -22v-18l-2 -12h-163q17 -40 51 -40h11q20 0 40 18h57q-33 -68 -101 -68q-80 0 -110 88l-2 25q0 80 87 110zM4089 -95h4q52 0 75 -51q6 -21 6 -71v-95h-51v118q0 42 -34 49h-11q-36 0 -41 -49v-118h-51v211h47v-18q24 24 56 24z
M4656 -95h6q39 0 67 -34h2v28h45v-211h-45v27h-2q-33 -35 -74 -35q-68 0 -97 77l-4 32v11q0 70 74 100q10 5 28 5zM4918 -95h4q59 0 78 -67l3 -72v-78h-52v118q0 42 -36 49h-9q-36 0 -40 -44v-123h-52v211h47v-18q25 24 57 24zM5254 -95h2q70 0 99 -79l4 -35q0 -76 -80 -108
l-25 -3q-39 0 -65 30v-92h-50v281h45v-26q29 32 70 32zM5810 -95h5q33 0 60 -32q26 32 66 32h6q54 0 76 -56l6 -44v-117h-50v105q0 62 -38 62h-7q-33 0 -38 -42v-120l-5 -5h-47v121q0 36 -29 46h-16q-38 0 -38 -66v-101h-49v211h45v-18q21 24 53 24zM1643 -101h47l5 -5v-201
l-5 -5h-47v211zM2541 -101h50v-211h-50v211zM2878 -101h49v-117q4 -52 41 -52h4q43 0 43 70v99h49v-211h-44v20h-5q-12 -28 -57 -28q-50 0 -76 54q-4 11 -4 30v135zM3652 -101h49v-211h-49v211zM5620 -101h49v-211h-49v211zM2330 -207q0 -46 49 -63h12q52 0 63 57v9
q0 46 -52 59h-16q-37 0 -56 -49v-13zM2676 -185h117q-18 40 -52 40h-6q-41 0 -59 -37v-3zM3787 -185h116q-20 40 -51 40h-7q-44 0 -58 -40zM4358 -198v-9q9 -63 58 -63h5q61 7 61 61v5q0 38 -36 55l-17 4h-14q-57 -11 -57 -53zM4603 -211q13 -59 59 -59h11q39 0 56 52v11
q-8 62 -54 62h-16q-44 0 -56 -62v-4zM5187 -198v-19q0 -40 56 -53h9q47 0 58 66q-13 59 -56 59h-14q-53 -13 -53 -53z" />
    <glyph glyph-name=".null" horiz-adv-x="0" 
 />
    <glyph glyph-name="nonmarkingreturn" horiz-adv-x="508" 
 />
    <glyph glyph-name="space" unicode=" " horiz-adv-x="512" 
 />
    <glyph glyph-name="space" unicode="&#xa0;" horiz-adv-x="512" 
 />
    <glyph glyph-name="exclam" unicode="!" horiz-adv-x="598" 
d="M211 403l-51 639v498h276v-498l-53 -639h-172zM166 0v279h262v-279h-262z" />
    <glyph glyph-name="quotedbl" unicode="&#x22;" horiz-adv-x="678" 
d="M406 1438h192v-559h-192v559zM80 1438h192v-559h-192v559z" />
    <glyph glyph-name="numbersign" unicode="#" horiz-adv-x="1575" 
d="M709 848l-88 -244h251l86 244h-249zM709 1464h221l-146 -415h242l148 415h221l-148 -415h283l-74 -201h-280l-84 -242h290l-71 -200h-291l-148 -416h-221l148 416h-244l-149 -416h-220l146 416h-287l76 200h282l86 242h-299l74 201h297z" />
    <glyph glyph-name="dollar" unicode="$" 
d="M455 973l-1 356q-27 0 -49.5 -12.5t-39.5 -35.5q-31 -43 -31 -116q0 -56 29.5 -103.5t91.5 -88.5zM446 -201v199q-90 0 -159.5 32t-119.5 91q-93 111 -93 323v39h243l-1 -24l-1 -23q0 -105 33.5 -162.5t106.5 -70.5v454q-196 108 -280.5 218.5t-84.5 259.5q0 173 94 276
q49 53 114.5 82t147.5 29v137h113v-139q169 0 262 -96q90 -93 90 -273v-29h-237v21q0 83 -33 133.5t-90 50.5v-409q226 -116 310.5 -224t84.5 -268q0 -197 -100 -307q-52 -57 -123.5 -89t-163.5 -32v-199h-113zM551 203q66 12 101.5 58.5t35.5 123.5q0 74 -30 123t-107 100
v-405z" />
    <glyph glyph-name="percent" unicode="%" horiz-adv-x="1579" 
d="M1055 356q0 -134 24 -182.5t90 -48.5q65 0 92 45q25 47 25 184q0 128 -27 178t-94 50q-59 0 -84.5 -48.5t-25.5 -177.5zM852 360q0 201 73.5 289t239.5 88q171 0 247.5 -87.5t76.5 -287.5q0 -203 -77.5 -297t-246.5 -94q-167 0 -240 90t-73 299zM291 1169
q0 -135 24.5 -182t90.5 -47q65 0 90.5 46t25.5 183q0 127 -26.5 176.5t-94.5 49.5q-59 0 -84.5 -48.5t-25.5 -177.5zM90 1176q0 199 72.5 286.5t240.5 87.5q173 0 247.5 -86t74.5 -286q0 -207 -77 -300.5t-245 -93.5q-166 0 -239.5 90.5t-73.5 301.5zM360 -29l705 1579h149
l-706 -1579h-148z" />
    <glyph glyph-name="ampersand" unicode="&#x26;" horiz-adv-x="1348" 
d="M623 1055q53 43 81.5 89t28.5 97q0 55 -24.5 84t-73.5 29t-77 -28q-26 -28 -26 -79q0 -12 6 -30l7.5 -17.5t9.5 -19.5zM782 285l-252 417q-69 -47 -105 -111t-36 -140q0 -104 60 -177t145 -73q48 0 92.5 19t95.5 65zM942 0l-51 98q-62 -62 -144 -93.5t-188 -31.5
q-203 0 -320.5 123.5t-117.5 337.5q0 138 64 243t229 230q-65 100 -93 176t-28 146q0 139 90.5 225t239.5 86q160 0 247.5 -75.5t87.5 -217.5q0 -119 -55 -215.5t-164 -169.5l185 -317q18 50 27 110q4 26 7 62.5t3 70.5v25h235q0 -157 -35 -286q-31 -123 -96 -218l182 -309
h-305z" />
    <glyph glyph-name="quotesingle" unicode="'" horiz-adv-x="352" 
d="M80 1438h192v-559h-192v559z" />
    <glyph glyph-name="parenleft" unicode="(" horiz-adv-x="674" 
d="M446 -389q-156 225 -230.5 475t-74.5 551q0 258 76.5 498.5t222.5 441.5h166q-96 -165 -146 -419t-50 -572q0 -160 12 -296.5t38 -258.5q50 -238 154 -420h-168z" />
    <glyph glyph-name="parenright" unicode=")" horiz-adv-x="674" 
d="M233 -389h-167q103 180 153.5 420.5t50.5 554.5q0 163 -12 304.5t-38 269.5q-48 253 -146 417h166q144 -200 221.5 -442.5t77.5 -497.5q0 -306 -74 -553.5t-232 -472.5z" />
    <glyph glyph-name="asterisk" unicode="*" 
d="M512 1008l-145 -201l-150 108l143 201l-233 76l57 178l236 -78v248h184v-248l236 78l57 -178l-233 -76l143 -201l-150 -108z" />
    <glyph glyph-name="plus" unicode="+" horiz-adv-x="1706" 
d="M752 1221h202v-510h498v-199h-498v-512h-202v512h-498v199h498v510z" />
    <glyph glyph-name="comma" unicode="," horiz-adv-x="512" 
d="M127 -301v104q63 6 101 55.5t38 125.5v16h-139v276h258v-278q0 -127 -69 -207t-189 -92z" />
    <glyph glyph-name="hyphen" unicode="-" horiz-adv-x="672" 
d="M92 459v239h488v-239h-488z" />
    <glyph glyph-name="hyphen" unicode="&#xad;" horiz-adv-x="672" 
d="M92 459v239h488v-239h-488z" />
    <glyph glyph-name="period" unicode="." horiz-adv-x="512" 
d="M127 0v276h258v-276h-258z" />
    <glyph glyph-name="slash" unicode="/" horiz-adv-x="629" 
d="M90 -190h-151l577 1767h152z" />
    <glyph glyph-name="zero" unicode="0" 
d="M649 633v416q0 181 -29.5 234.5t-107.5 53.5t-107.5 -54.5t-29.5 -246.5v-147v-418q0 -184 29 -236.5t108 -52.5q77 0 107 54.5t30 248.5v148zM88 772q0 136 4 237.5t13 169.5q18 136 59 201q54 90 137 130t211 40q68 0 117 -9t94 -31q80 -39 137 -130q40 -65 58 -199
t18 -409q0 -140 -4 -243.5t-13 -171.5q-15 -133 -55 -201q-56 -97 -139.5 -141t-212.5 -44q-131 0 -213.5 43.5t-138.5 141.5q-38 64 -56 195q-8 68 -12 168t-4 253z" />
    <glyph glyph-name="one" unicode="1" 
d="M432 0v1085h-340v182q93 0 166 19.5t129 57.5q104 71 125 206h190v-1550h-270z" />
    <glyph glyph-name="two" unicode="2" 
d="M88 0l-1 24l-1 25q0 177 72 339t223 319l80 78q100 95 133 143q29 43 44 96.5t15 120.5q0 98 -35 145t-108 47q-76 0 -112 -58t-36 -185l1 -37l1 -23h-268l-1 27l-1 24q0 240 102.5 352.5t321.5 112.5q207 0 315.5 -101t108.5 -292q0 -91 -19 -164t-61 -143
q-32 -54 -143 -167l-89 -92q-220 -244 -251 -345h545v-246h-836z" />
    <glyph glyph-name="three" unicode="3" 
d="M84 518h268v-18q0 -173 35 -241.5t121 -68.5q83 0 118.5 60.5t35.5 216.5t-42.5 206t-164.5 50l-45 -1l-35 -1v201h20q136 0 188 46t52 171q0 115 -30.5 159.5t-104.5 44.5q-72 0 -104 -50q-15 -24 -23 -64.5t-8 -98.5v-36h-267q0 13 -2 21v36q0 198 105 298.5t311 100.5
q191 0 295 -103t104 -294q0 -129 -45 -210.5t-133 -111.5q107 -27 160 -116.5t53 -247.5q0 -248 -110.5 -372t-335.5 -124q-213 0 -315.5 119t-102.5 367l1 30z" />
    <glyph glyph-name="four" unicode="4" 
d="M276 528h287v627zM557 0v305h-487v246l456 971h293v-987h129v-230h-129v-305h-262z" />
    <glyph glyph-name="five" unicode="5" 
d="M80 494h266v-41q0 -134 39 -203.5t117 -69.5q79 0 115 81t36 263q0 165 -39.5 240.5t-128.5 75.5q-59 0 -97 -34t-44 -91h-250l41 807h729v-246h-516l-16 -309q40 43 91.5 64.5t119.5 21.5q195 0 293 -127.5t98 -382.5q0 -299 -105 -436.5t-335 -137.5q-212 0 -313 119
t-101 367v39z" />
    <glyph glyph-name="six" unicode="6" 
d="M371 506q0 -179 32 -246t111 -67q78 0 108.5 59t30.5 250t-30 250t-111 59q-77 0 -109 -67.5t-32 -237.5zM371 936q33 51 87.5 77.5t129.5 26.5q177 0 262.5 -119t85.5 -368q0 -318 -98 -450t-328 -132q-124 0 -204.5 40.5t-137.5 131.5q-42 69 -60 206.5t-18 404.5
q0 134 4 235t13 170q18 138 57 207q54 95 143.5 139.5t224.5 44.5q179 0 276 -85t97 -240v-23h-266v15q0 62 -29.5 94t-91.5 32q-81 0 -115 -71q-16 -34 -25 -97.5t-9 -150.5l1 -43z" />
    <glyph glyph-name="seven" unicode="7" 
d="M272 0q0 93 15.5 190t43.5 206q21 81 61 210q98 317 270 662h-578v254h852v-222q-155 -289 -250 -618q-34 -119 -58 -221q-30 -126 -44 -227q-17 -121 -17 -234h-295z" />
    <glyph glyph-name="eight" unicode="8" 
d="M387 1139q0 -114 28.5 -159.5t96.5 -45.5t97.5 47t29.5 158t-30.5 157.5t-100.5 46.5q-65 0 -93 -47t-28 -157zM512 731q-78 0 -108.5 -58t-30.5 -235q0 -141 31 -193t108 -52q79 0 110 55.5t31 212.5q0 152 -32 211t-109 59zM317 834q-96 29 -145 113q-23 41 -36 97
t-13 123q0 185 100 283t291 98t291 -100t100 -289q0 -134 -49.5 -213t-153.5 -112q122 -24 177 -115.5t55 -267.5q0 -247 -103 -362.5t-321 -115.5q-213 0 -315.5 111.5t-102.5 345.5q0 183 53.5 278.5t171.5 125.5z" />
    <glyph glyph-name="nine" unicode="9" 
d="M651 586q-33 -52 -88 -77.5t-133 -25.5q-177 0 -261.5 119t-84.5 367q0 316 95 448.5t317 132.5q134 0 217.5 -40t138.5 -132q42 -66 60 -204t18 -406q0 -137 -4 -240t-13 -171q-15 -136 -55 -201q-53 -93 -140 -139t-212 -46q-195 0 -293 84.5t-98 253.5v10h268v-16
q0 -59 31.5 -91t89.5 -32q81 0 114 69t33 257v80zM649 1020q0 180 -30.5 244.5t-110.5 64.5q-78 0 -108.5 -59t-30.5 -250q0 -196 29.5 -252.5t111.5 -56.5q78 0 108.5 64t30.5 245z" />
    <glyph glyph-name="colon" unicode=":" horiz-adv-x="559" 
d="M152 862v277h256v-277h-256zM152 0v276h256v-276h-256z" />
    <glyph glyph-name="semicolon" unicode=";" horiz-adv-x="559" 
d="M152 -301v104q63 6 100 55t37 126v16h-137v276h256v-294q0 -110 -75 -194q-38 -43 -82.5 -66t-98.5 -23zM152 862v277h256v-277h-256z" />
    <glyph glyph-name="semicolon" unicode="&#x37e;" horiz-adv-x="559" 
d="M152 -301v104q63 6 100 55t37 126v16h-137v276h256v-294q0 -110 -75 -194q-38 -43 -82.5 -66t-98.5 -23zM152 862v277h256v-277h-256z" />
    <glyph glyph-name="less" unicode="&#x3c;" horiz-adv-x="1706" 
d="M1442 1194v-219l-893 -365l893 -364v-219l-1178 485v199z" />
    <glyph glyph-name="equal" unicode="=" horiz-adv-x="1706" 
d="M254 496h1198v-199h-1198v199zM254 926h1198v-199h-1198v199z" />
    <glyph glyph-name="greater" unicode="&#x3e;" horiz-adv-x="1706" 
d="M264 1194l1178 -483v-199l-1178 -485v219l895 364l-895 365v219z" />
    <glyph glyph-name="question" unicode="?" horiz-adv-x="1006" 
d="M358 1126h-249v39q0 198 101.5 305t291.5 107q182 0 288.5 -104.5t106.5 -286.5q0 -70 -15.5 -129t-45.5 -109q-37 -62 -113 -149t-100 -121q-35 -46 -52.5 -102.5t-17.5 -124.5l1 -19l1 -18h-241l-3 28v43q0 55 6 100.5t20 86.5q26 78 93 164l52 62q134 155 134 300
q0 80 -32 122t-92 42q-67 0 -100.5 -48.5t-33.5 -150.5v-37zM565 266v-266h-256v266h256z" />
    <glyph glyph-name="at" unicode="@" horiz-adv-x="2048" 
d="M1167 272q-54 -84 -126.5 -123.5t-170.5 -39.5q-158 0 -240.5 86.5t-82.5 253.5q0 238 139.5 400.5t343.5 162.5q79 0 138.5 -33t97.5 -98l53 98h178l-147 -598l-5 -23l-2 -18q0 -33 24 -53q25 -17 71 -17q22 0 40 4t41 16q42 20 80 56q85 79 130 186.5t45 235.5
q0 239 -185.5 394t-478.5 155q-142 0 -263.5 -33.5t-219.5 -101.5q-169 -113 -261 -285.5t-92 -374.5q0 -305 207 -489.5t553 -184.5q163 0 317.5 48.5t286.5 142.5l82 -117q-151 -112 -325 -171.5t-357 -59.5q-193 0 -353 49q-81 24 -151.5 59t-134.5 84
q-154 119 -231.5 278.5t-77.5 358.5q0 168 52.5 320t154.5 274q147 180 355 273.5t464 93.5q85 0 162 -11t155 -35q150 -45 259 -128q135 -105 201.5 -240.5t66.5 -302.5q0 -164 -65.5 -303.5t-188.5 -239.5q-67 -54 -153 -86q-82 -29 -171 -29q-104 0 -159.5 43t-55.5 123z
M1217 700q-12 82 -57.5 124t-117.5 42q-114 0 -198 -123.5t-84 -298.5q0 -91 40.5 -139.5t117.5 -48.5q82 0 151 63t94 164z" />
    <glyph glyph-name="A" unicode="A" horiz-adv-x="1120" 
d="M430 618h244l-123 646zM18 0l347 1540h385l350 -1540h-309l-76 387h-330l-74 -387h-293z" />
    <glyph glyph-name="B" unicode="B" horiz-adv-x="1116" 
d="M410 219h118q111 0 156 54t45 190q0 140 -48.5 193t-184.5 53h-86v-490zM410 915h96q108 0 149 47t41 173q0 112 -41.5 154t-156.5 42h-88v-416zM131 0v1540h461q199 0 295 -92t96 -283q0 -153 -47 -236.5t-143 -101.5q108 -15 168.5 -108t60.5 -244q0 -245 -103 -360
t-319 -115h-469z" />
    <glyph glyph-name="C" unicode="C" horiz-adv-x="1122" 
d="M743 549h279l1 -30l1 -30q0 -268 -112 -397t-345 -129q-112 0 -189.5 28t-135.5 89q-77 78 -109.5 220t-32.5 488q0 241 18.5 381t59.5 207q62 105 154 153t235 48q234 0 341 -122.5t107 -391.5h-278v37q0 126 -40 187t-124 61q-102 0 -140 -85.5t-38 -469.5
q0 -414 36 -505t140 -91q95 0 133.5 70.5t38.5 260.5v21z" />
    <glyph glyph-name="D" unicode="D" horiz-adv-x="1204" 
d="M412 227h127q98 0 136 13.5t62 48.5q39 60 56.5 166t17.5 333t-20 328t-68 152q-24 26 -65 36.5t-123 10.5h-123v-1088zM131 0v1540h461q140 0 224 -24t138 -78q81 -78 114 -200q16 -59 25 -154t9 -220q0 -332 -22.5 -465t-76.5 -228t-150 -133t-327 -38h-395z" />
    <glyph glyph-name="E" unicode="E" horiz-adv-x="1014" 
d="M131 0v1540h791v-256h-506v-356h471v-244h-471v-424h518v-260h-803z" />
    <glyph glyph-name="F" unicode="F" horiz-adv-x="1001" 
d="M131 0v1540h805v-252h-518v-364h489v-246h-489v-678h-287z" />
    <glyph glyph-name="G" unicode="G" horiz-adv-x="1206" 
d="M891 0l-21 170q-44 -111 -120 -159t-211 -48q-240 0 -339.5 183.5t-99.5 670.5q0 233 23.5 369t73.5 209q60 91 159.5 135.5t245.5 44.5q246 0 364.5 -117.5t118.5 -363.5v-39h-268v16q0 138 -51.5 208.5t-153.5 70.5q-124 0 -170.5 -97t-46.5 -508q0 -327 44 -436.5
t159 -109.5q114 0 162.5 79t48.5 263v53h-199v246h475v-840h-194z" />
    <glyph glyph-name="H" unicode="H" horiz-adv-x="1225" 
d="M131 0v1540h285v-604h393v604h285v-1540h-285v698h-393v-698h-285z" />
    <glyph glyph-name="I" unicode="I" horiz-adv-x="549" 
d="M131 0v1540h287v-1540h-287z" />
    <glyph glyph-name="J" unicode="J" horiz-adv-x="903" 
d="M25 487h262v-182q0 -59 24 -90t76 -31q54 0 75 34.5t21 160.5v70v1091h281v-1083q0 -164 -6.5 -220.5t-22.5 -91.5q-41 -90 -128 -136t-222 -46q-179 0 -269.5 92.5t-90.5 274.5v157z" />
    <glyph glyph-name="K" unicode="K" horiz-adv-x="1118" 
d="M131 0v1540h281v-643l350 643h319l-389 -639l414 -901h-315l-277 637l-102 -170v-467h-281z" />
    <glyph glyph-name="L" unicode="L" horiz-adv-x="999" 
d="M131 0v1540h287v-1278h518v-262h-805z" />
    <glyph glyph-name="M" unicode="M" horiz-adv-x="1548" 
d="M131 0v1540h432l211 -997l211 997h432v-1540h-274l6 1366l-287 -1366h-176l-287 1366l7 -1366h-275z" />
    <glyph glyph-name="N" unicode="N" horiz-adv-x="1221" 
d="M131 0v1540h295l401 -1077l-8 1077h271v-1540h-293l-404 1079l8 -1079h-270z" />
    <glyph glyph-name="O" unicode="O" horiz-adv-x="1202" 
d="M393 770q0 -381 44.5 -479t164.5 -98q116 0 160.5 96.5t44.5 480.5q0 385 -44 482.5t-163 97.5q-118 0 -163 -98q-22 -49 -33 -168t-11 -314zM100 770q0 250 22.5 393.5t72.5 218.5q66 105 159.5 150t245.5 45q150 0 243.5 -44.5t162.5 -150.5q47 -73 71 -222
q11 -70 17 -169t6 -221q0 -249 -23 -393.5t-71 -218.5q-68 -106 -161 -150.5t-245 -44.5q-150 0 -243.5 45t-161.5 150q-48 74 -72 220q-11 71 -17 170t-6 222z" />
    <glyph glyph-name="P" unicode="P" horiz-adv-x="1116" 
d="M408 866h120q133 0 187.5 52.5t54.5 179.5q0 128 -49 177.5t-189 49.5h-124v-459zM131 0v1540h498q227 0 328 -102q50 -51 75 -133.5t25 -200.5q0 -229 -106 -340t-326 -111h-209v-653h-285z" />
    <glyph glyph-name="Q" unicode="Q" horiz-adv-x="1202" 
d="M668 203l-84 86l143 145l61 -63q12 85 14 105.5t2 54.5q0 35 2.5 100.5t2.5 83.5q0 431 -44 533t-165 102q-118 0 -163 -98q-22 -49 -33 -168t-11 -314q0 -375 41.5 -476t153.5 -101l30 2q15 0 50 8zM856 14q-24 -12 -52 -21.5t-63 -16.5q-67 -13 -141 -13
q-150 0 -243.5 45t-161.5 150q-48 75 -71.5 223.5t-23.5 388.5q0 249 23 392.5t72 219.5q66 105 159.5 150t245.5 45q150 0 243.5 -44.5t162.5 -150.5q47 -73 71 -223q11 -71 17 -168.5t6 -220.5q0 -259 -23 -404.5t-71 -207.5l172 -172l-146 -148z" />
    <glyph glyph-name="R" unicode="R" horiz-adv-x="1182" 
d="M408 889h165q124 0 173 50.5t49 178.5q0 114 -53.5 160.5t-192.5 46.5h-141v-436zM131 0v1540h514q233 0 335 -95q51 -47 77 -123.5t26 -184.5q0 -151 -54 -236t-163 -102q103 -27 158 -114.5t55 -230.5v-20l8 -204q0 -41 5.5 -75.5t16.5 -64.5q19 -53 56 -90h-340
q-12 39 -18 91q-2 22 -5 67t-3 82l-4 161v41q0 133 -57.5 183.5t-231.5 50.5h-98v-676h-277z" />
    <glyph glyph-name="S" unicode="S" horiz-adv-x="1122" 
d="M102 541h287v-99q0 -141 35.5 -193t122.5 -52q91 0 138.5 45.5t47.5 136.5q0 68 -33 117.5t-143 128.5l-147 104q-188 132 -240.5 218t-52.5 216q0 193 115 303.5t317 110.5q212 0 327 -117t115 -336l-1 -34l-1 -21h-272v41q0 125 -41 179t-135 54q-69 0 -108.5 -40
t-39.5 -113q0 -95 177 -215l3 -2l158 -107q168 -111 228.5 -211t60.5 -254q0 -210 -120 -324t-343 -114q-230 0 -344.5 120.5t-114.5 365.5l4 86v6z" />
    <glyph glyph-name="T" unicode="T" horiz-adv-x="987" 
d="M350 0v1286h-330v254h947v-254h-330v-1286h-287z" />
    <glyph glyph-name="U" unicode="U" horiz-adv-x="1223" 
d="M131 1540h287v-1038q0 -177 43.5 -241t154.5 -64q109 0 152 64.5t43 244.5v1034h283v-1063q0 -153 -17 -225t-59 -127q-61 -80 -164 -122q-52 -20 -111 -30t-131 -10q-263 0 -372 114t-109 400v1063z" />
    <glyph glyph-name="V" unicode="V" horiz-adv-x="1120" 
d="M373 0l-346 1540h307l229 -1229l207 1229h303l-323 -1540h-377z" />
    <glyph glyph-name="W" unicode="W" horiz-adv-x="1677" 
d="M336 0l-299 1540h297l188 -1167l201 1167h238l221 -1190l164 1190h294l-280 -1540h-340l-178 973l-164 -973h-342z" />
    <glyph glyph-name="X" unicode="X" horiz-adv-x="1122" 
d="M18 0l377 786l-358 754h323l205 -485l209 485h320l-371 -754l381 -786h-324l-223 514l-227 -514h-312z" />
    <glyph glyph-name="Y" unicode="Y" horiz-adv-x="1126" 
d="M422 0v653l-404 887h318l233 -579l230 579h309l-397 -887v-653h-289z" />
    <glyph glyph-name="Z" unicode="Z" horiz-adv-x="991" 
d="M61 0v260l541 1040h-514v240h819v-237l-534 -1043h557v-260h-869z" />
    <glyph glyph-name="bracketleft" unicode="[" horiz-adv-x="672" 
d="M160 -418v1958h411v-170h-159v-1618h159v-170h-411z" />
    <glyph glyph-name="backslash" unicode="\" horiz-adv-x="629" 
d="M516 -190l-577 1767h151l578 -1767h-152z" />
    <glyph glyph-name="bracketright" unicode="]" horiz-adv-x="672" 
d="M489 1540v-1958h-411v170h162v1618h-162v170h411z" />
    <glyph glyph-name="asciicircum" unicode="^" horiz-adv-x="2048" 
d="M897 1460h252l481 -561h-235l-371 371l-373 -371h-235z" />
    <glyph glyph-name="underscore" unicode="_" 
d="M0 -279h1024v-204h-1024v204z" />
    <glyph glyph-name="grave" unicode="`" 
d="M653 1280h-125l-305 285h256z" />
    <glyph glyph-name="a" unicode="a" horiz-adv-x="993" 
d="M627 606q-150 -75 -204 -136t-54 -142q0 -77 28.5 -113.5t89.5 -36.5q69 0 104.5 61t35.5 183v184zM664 0q-8 11 -16 39l-13 73q-41 -68 -108 -105.5t-156 -37.5q-132 0 -205.5 89.5t-73.5 246.5q0 142 64 226t256 171l54 24q157 66 157 157q0 54 -30.5 84t-88.5 30
q-72 0 -107 -39.5t-35 -121.5v-23h-260q0 195 96 284t306 89t295.5 -82t85.5 -285v-653q0 -47 9 -87t30 -79h-260z" />
    <glyph glyph-name="b" unicode="b" horiz-adv-x="995" 
d="M516 963q-79 0 -109 -76t-30 -357q0 -217 29.5 -278.5t109.5 -61.5q70 0 96.5 68.5t26.5 316.5q0 131 -6 209.5t-20 112.5q-26 66 -97 66zM117 0v1540h268v-481q33 65 89 97t138 32q165 0 232 -133.5t67 -481.5q0 -337 -68.5 -470.5t-236.5 -133.5q-86 0 -144 38.5
t-91 113.5v-121h-254z" />
    <glyph glyph-name="c" unicode="c" horiz-adv-x="930" 
d="M846 454l1 -26l1 -39q0 -216 -91 -318t-284 -102q-216 0 -303.5 129.5t-87.5 479.5q0 351 87 480.5t304 129.5q191 0 282 -95.5t91 -293.5v-41h-256v26q0 104 -27 151q-13 22 -35 34t-53 12q-61 0 -89 -45t-28 -150v-399q0 -60 6 -101t20 -65q26 -47 89 -47q67 0 94 54
t27 202v25z" />
    <glyph glyph-name="d" unicode="d" horiz-adv-x="995" 
d="M356 596q0 -136 6 -218.5t20 -118.5q26 -69 97 -69q79 0 109 61.5t30 252.5q0 305 -29.5 382t-109.5 77q-68 0 -95.5 -66t-27.5 -301zM625 121q-33 -76 -92 -114t-144 -38q-166 0 -235.5 132.5t-69.5 471.5q0 349 67 482t232 133q83 0 137.5 -31.5t89.5 -97.5v481h269
v-1540h-254v121z" />
    <glyph glyph-name="e" unicode="e" horiz-adv-x="975" 
d="M358 725h260v49q0 119 -29 164t-102 45q-70 0 -100.5 -46t-30.5 -163l1 -17zM627 397h252l1 -23l1 -22q0 -199 -94.5 -291t-299.5 -92q-107 0 -180 27t-121 84q-55 65 -79 169q-11 50 -17 142t-6 225q0 213 20 302.5t69 149t129 89.5q41 15 88.5 23t103.5 8
q106 0 184.5 -32.5t128.5 -98.5q42 -56 61 -146q9 -43 14 -114t5 -168v-88h-526l-3 -28v-46q0 -165 30 -231t104 -66q71 0 103 54t32 173z" />
    <glyph glyph-name="f" unicode="f" horiz-adv-x="563" 
d="M141 0v958h-104v199h104v115q0 148 57 211t191 63h26.5t32.5 -2h41q20 -3 29 -4v-201l-14 1l-12 1q-43 0 -62.5 -18.5t-19.5 -58.5v-107h108v-199h-108v-958h-269z" />
    <glyph glyph-name="g" unicode="g" horiz-adv-x="995" 
d="M879 92q0 -152 -14.5 -223t-49.5 -121q-45 -66 -135 -101.5t-215 -35.5q-171 0 -263 67q-46 34 -69.5 82t-23.5 113h265q3 -32 28 -53q27 -19 71 -19q75 0 106 47t31 170v80q-33 -65 -88.5 -97t-130.5 -32q-170 0 -238.5 129.5t-68.5 485.5q0 337 69 471q34 65 93.5 99
t142.5 34q86 0 143.5 -37.5t92.5 -114.5v121h254v-1065zM479 967q-70 0 -96.5 -70t-26.5 -338q0 -120 6 -193t20 -107q27 -64 97 -64q79 0 109 75t30 383q0 191 -29.5 252.5t-109.5 61.5z" />
    <glyph glyph-name="h" unicode="h" horiz-adv-x="993" 
d="M117 0v1540h266v-493q34 65 97 103t141 38q125 0 192.5 -72.5t67.5 -206.5v-909h-258v776q0 107 -23.5 144.5t-81.5 37.5q-71 0 -104 -49q-15 -24 -23 -66.5t-8 -105.5v-737h-266z" />
    <glyph glyph-name="i" unicode="i" horiz-adv-x="496" 
d="M115 1300v240h266v-240h-266zM115 0v1157h266v-1157h-266z" />
    <glyph glyph-name="j" unicode="j" horiz-adv-x="514" 
d="M133 1300v240h264v-240h-264zM37 -385v219q62 0 80 18.5t18 104.5v1200h262v-1204q0 -226 -54 -285t-218 -59h-15h-13q-10 2 -14 2h-26q-14 3 -20 4z" />
    <glyph glyph-name="k" unicode="k" horiz-adv-x="885" 
d="M117 0v1540h260v-805l239 422h281l-289 -442l293 -715h-291l-168 463l-65 -103v-360h-260z" />
    <glyph glyph-name="l" unicode="l" horiz-adv-x="496" 
d="M115 0v1540h266v-1540h-266z" />
    <glyph glyph-name="m" unicode="m" horiz-adv-x="1538" 
d="M119 0v1157h248v-133q45 90 109.5 127t170.5 37q83 0 147 -38.5t91 -107.5q52 78 115 112t151 34q136 0 206 -76t70 -223v-889h-262v739q0 137 -28 177t-103 40q-69 0 -99 -46t-30 -165v-745h-264v752q0 117 -28 160.5t-95 43.5q-71 0 -103 -46.5t-32 -153.5v-756h-264z
" />
    <glyph glyph-name="n" unicode="n" horiz-adv-x="993" 
d="M117 0v1157h262v-117q41 71 102.5 109.5t139.5 38.5q125 0 192.5 -72.5t67.5 -206.5v-909h-258v776q0 103 -26 144t-87 41q-66 0 -95.5 -51.5t-29.5 -172.5v-737h-268z" />
    <glyph glyph-name="o" unicode="o" horiz-adv-x="979" 
d="M356 590v-27q0 -267 27 -328t104 -61q80 0 108 56q14 29 21 101t7 193v47v66q0 228 -29 285q-27 59 -105 59q-75 0 -104 -54t-29 -257v-80zM82 578q0 349 90.5 479.5t316.5 130.5q228 0 318 -129.5t90 -480.5q0 -349 -90 -479t-318 -130q-225 0 -316 129t-91 480z" />
    <glyph glyph-name="p" unicode="p" horiz-adv-x="995" 
d="M377 627q0 -283 29.5 -357.5t109.5 -74.5q70 0 96.5 65.5t26.5 321.5q0 127 -6 204.5t-20 112.5q-26 68 -97 68q-79 0 -110 -62q-15 -31 -22 -98t-7 -180zM117 -389v1546h254v-121q32 75 92 113.5t143 38.5q167 0 236 -132.5t69 -471.5q0 -350 -66.5 -482.5
t-232.5 -132.5q-83 0 -137 31.5t-90 97.5v-487h-268z" />
    <glyph glyph-name="q" unicode="q" horiz-adv-x="995" 
d="M479 967q-70 0 -96.5 -70t-26.5 -338q0 -120 6 -193t20 -107q27 -64 97 -64q79 0 109 75t30 383q0 191 -29.5 252.5t-109.5 61.5zM610 98q-33 -65 -89 -97t-138 -32q-164 0 -231.5 133t-67.5 482q0 337 69 471q34 65 93.5 99t142.5 34q86 0 143.5 -37.5t92.5 -114.5v121
h254v-1546h-269v487z" />
    <glyph glyph-name="r" unicode="r" horiz-adv-x="692" 
d="M119 0v1157h256v-188q53 115 117.5 166.5t152.5 51.5v-325l-30 3l-37 1q-84 0 -135.5 -51.5t-51.5 -136.5v-678h-272z" />
    <glyph glyph-name="s" unicode="s" horiz-adv-x="901" 
d="M76 385h241v-33q0 -98 30 -141t102 -43q55 0 87.5 30t32.5 83q0 65 -129 152l-51 34l-13 9q-294 201 -294 396q0 153 95.5 234.5t277.5 81.5q175 0 264 -90q44 -45 66 -111.5t22 -159.5v-24h-236v24q0 85 -32 123.5t-101 38.5q-49 0 -79.5 -27.5t-30.5 -72.5
q0 -43 27 -77t118 -95l61 -41q291 -192 291 -385q0 -152 -98.5 -237t-280.5 -85q-190 0 -281 90t-91 281l1 22z" />
    <glyph glyph-name="t" unicode="t" horiz-adv-x="557" 
d="M399 428v-78q0 -94 18 -118.5t64 -24.5h17l12 1v-208l-91 -8l-52 -2q-136 0 -186 54t-50 220v694h-104v199h104v316h268v-316h111v-199h-111v-530z" />
    <glyph glyph-name="u" unicode="u" horiz-adv-x="991" 
d="M877 1157v-1157h-263v115q-40 -72 -103 -109q-29 -17 -65 -27t-75 -10q-127 0 -192.5 71.5t-65.5 207.5v909h258v-756q0 -116 26 -159t88 -43q66 0 94.5 49t28.5 170v739h269z" />
    <glyph glyph-name="v" unicode="v" horiz-adv-x="909" 
d="M291 0l-268 1157h284l154 -885l147 885h277l-267 -1157h-327z" />
    <glyph glyph-name="w" unicode="w" horiz-adv-x="1341" 
d="M274 0l-247 1157h280l123 -856l131 856h219l156 -868l111 868h266l-223 -1157h-287l-131 688l-105 -688h-293z" />
    <glyph glyph-name="x" unicode="x" horiz-adv-x="895" 
d="M14 0l305 592l-292 565h305l125 -289l125 289h292l-286 -565l293 -592h-297l-133 309l-134 -309h-303z" />
    <glyph glyph-name="y" unicode="y" horiz-adv-x="909" 
d="M176 -379v200h17l26 -1q57 0 83 18.5t26 59.5l-3 31l-3 18t-5 17l-297 1193h283l160 -835l155 835h271l-301 -1266q-39 -165 -106 -221.5t-212 -56.5h-16q-9 0 -16.5 0.5t-13.5 1.5z" />
    <glyph glyph-name="z" unicode="z" horiz-adv-x="784" 
d="M43 0v213l391 719h-387v225h688v-194l-403 -736h407v-227h-696z" />
    <glyph glyph-name="braceleft" unicode="{" 
d="M883 1477v-209l-25 1l-22 1q-99 0 -135.5 -38.5t-36.5 -162.5v-240q0 -147 -44.5 -208.5t-162.5 -90.5q117 -27 162 -87.5t45 -209.5v-241q0 -123 35 -161t137 -38l22 1l25 1v-209l-39 -1l-37 -1q-98 0 -166 12t-115 37q-58 33 -81 91.5t-23 199.5v252q0 135 -51.5 193.5
t-171.5 58.5l-20 -1l-21 -1v209l21 -1l20 -1q120 0 171 58q26 29 39 77t13 119v250q0 145 23 201t81 92q45 23 112.5 36t168.5 13l37 -1z" />
    <glyph glyph-name="bar" unicode="|" 
d="M410 1565h206v-2048h-206v2048z" />
    <glyph glyph-name="braceright" unicode="}" 
d="M143 1477h68q109 0 177 -12t112 -38q56 -31 80 -91t24 -199v-252q0 -136 51 -194t172 -58l20 1l21 1v-209h-37q-124 0 -175.5 -56t-51.5 -194v-252q0 -142 -23.5 -200.5t-80.5 -90.5q-45 -23 -112.5 -36t-168.5 -13l-37 1l-39 1v209l25 -1l22 -1q100 0 136 38.5t36 160.5
v239q0 149 45 210.5t162 88.5q-118 27 -162.5 89t-44.5 210v242q0 121 -35.5 160t-136.5 39l-22 -1l-25 -1v209z" />
    <glyph glyph-name="asciitilde" unicode="~" horiz-adv-x="1706" 
d="M1530 803v-221q-105 -71 -197 -104.5t-182 -33.5q-36 0 -50 1.5t-40.5 6t-47 9.5t-46.5 14l-71 25q-219 75 -333 75q-43 0 -86.5 -9t-91.5 -29q-94 -37 -207 -119v221q103 70 201.5 106.5t185.5 36.5q118 0 291 -58l4 -1l55 -19q157 -55 240 -55q41 0 85 9t90 28
q88 35 200 117z" />
    <glyph glyph-name="sterling" unicode="&#xa3;" 
d="M147 -29l-75 193q95 66 151 158t56 186q0 27 -1 37.5t-4 32.5q0 20 -5 43t-7 32h-190v142h127q-45 72 -70 160t-25 182q0 188 117.5 300.5t315.5 112.5q207 0 313 -103t106 -304l-1 -40l-1 -26h-256v37q0 116 -39.5 171.5t-121.5 55.5q-76 0 -118 -56t-42 -159
q0 -69 24 -156t70 -175h291v-142h-242l9 -43l3 -43q0 -92 -56 -189t-169 -190q55 30 103 45t96 15q27 0 53 -4t75 -16q87 -19 126 -19q37 0 77 14.5t91 48.5l59 -223q-49 -35 -112 -54.5t-132 -19.5t-194.5 30t-179.5 30q-49 0 -102 -15t-120 -49z" />
    <glyph glyph-name="currency" unicode="&#xa4;" horiz-adv-x="1014" 
 />
    <glyph glyph-name="yen" unicode="&#xa5;" horiz-adv-x="1262" 
 />
    <glyph glyph-name="brokenbar" unicode="&#xa6;" horiz-adv-x="1014" 
 />
    <glyph glyph-name="section" unicode="&#xa7;" 
d="M635 500q35 21 55 51q19 32 19 67q0 31 -17.5 57.5t-70.5 65.5l-224 164q-39 -20 -60.5 -46.5t-21.5 -55.5q0 -77 234 -242zM119 164h254l-1 -15l-1 -16q0 -65 33 -101q34 -34 102 -34q66 0 97.5 27.5t31.5 87.5q0 36 -21 66t-100 89l-248 187q-111 81 -149.5 148
t-38.5 155q0 97 48 163t142 93q-58 40 -87 99t-29 138q0 156 101 241t286 85q174 0 267 -81t93 -234l-1 -16l-1 -17h-250v14q0 69 -29 101q-27 32 -90 32t-90.5 -23t-27.5 -73q0 -83 135 -179l22 -16l150 -106q139 -97 184 -167t45 -167q0 -99 -46.5 -160t-141.5 -88
q64 -37 96.5 -109.5t32.5 -181.5q0 -158 -100 -239q-50 -40 -123 -60t-175 -20q-188 0 -280 82t-92 252l1 20z" />
    <glyph glyph-name="copyright" unicode="&#xa9;" horiz-adv-x="1706" 
d="M1212 897h-188q-8 70 -53 108.5t-119 38.5q-89 0 -142 -82.5t-53 -226.5q0 -147 51.5 -224t151.5 -77q72 0 116 41.5t54 119.5l193 1q0 -66 -28.5 -122.5t-80.5 -100.5q-101 -84 -260 -84q-186 0 -293.5 118t-107.5 322q0 206 109.5 328.5t293.5 122.5q151 0 250 -78
q51 -40 78.5 -91t27.5 -114zM854 1356q-129 0 -240 -46q-58 -24 -105 -55.5t-93 -78.5q-88 -89 -135.5 -203.5t-47.5 -237.5q0 -127 47 -238t135 -199t202 -135.5t237 -47.5q125 0 237 47q57 23 108 57t97 80q87 85 133 197.5t46 238.5q0 65 -11 122.5t-36 115.5
q-46 114 -134 201.5t-200.5 134.5t-239.5 47zM852 1479q153 0 288 -56t241 -162t161 -243t55 -285q0 -152 -54.5 -283.5t-163 -238t-245.5 -164t-282 -57.5q-148 0 -280 56.5t-242 164.5q-106 104 -162.5 240t-56.5 282q0 150 55.5 284t163.5 245q104 104 237.5 160.5
t284.5 56.5z" />
    <glyph glyph-name="registered" unicode="&#xae;" horiz-adv-x="1706" 
d="M745 1034v-239h99q88 0 129 27.5t41 88.5q0 64 -44 93.5t-136 29.5h-89zM545 1161h323q175 0 264 -59.5t89 -177.5q0 -80 -48 -138.5t-133 -80.5l185 -369h-224l-157 338h-99v-338h-200v825zM854 1356q-125 0 -236 -45q-55 -22 -103 -54t-93 -77q-88 -88 -138.5 -205.5
t-50.5 -239.5q0 -123 45.5 -235.5t133.5 -200t202.5 -137t237.5 -49.5q62 0 118 11t115 36q114 47 207 135q87 84 135 195.5t48 232.5q0 131 -44 243.5t-133 203.5t-202 138.5t-242 47.5zM852 1479q153 0 289.5 -57.5t244.5 -166.5q101 -103 156 -237.5t55 -284.5
q0 -154 -55.5 -288.5t-162 -238t-244 -160t-283.5 -56.5q-150 0 -286 58t-241 165t-159.5 240.5t-54.5 279.5q0 102 27 198t81 189q101 170 267 264.5t366 94.5z" />
    <glyph glyph-name="paragraph" unicode="&#xb6;" 
d="M949 1439v-78h-127v-1365h-102v1365h-146v-1365h-104v738q-170 8 -273.5 104.5t-103.5 247.5q0 157 109.5 255t293.5 98h453z" />
    <glyph glyph-name="periodcentered" unicode="&#xb7;" horiz-adv-x="508" 
d="M146 741l82 84q18 17 38 17q19 0 40 -19l81 -87q12 -16 12 -29q0 -15 -15 -31l-80 -89q-23 -23 -38 -23q-22 0 -38 18l-89 101q-10 13 -10 26q0 15 17 32z" />
    <glyph glyph-name="periodcentered" unicode="&#x2219;" horiz-adv-x="508" 
d="M146 741l82 84q18 17 38 17q19 0 40 -19l81 -87q12 -16 12 -29q0 -15 -15 -31l-80 -89q-23 -23 -38 -23q-22 0 -38 18l-89 101q-10 13 -10 26q0 15 17 32z" />
    <glyph glyph-name="uni00B9" unicode="&#xb9;" horiz-adv-x="421" 
d="M237 815h-122v599l-33 -33l-82 83l180 178h57v-827z" />
    <glyph glyph-name="ordmasculine" unicode="&#xba;" horiz-adv-x="718" 
 />
    <glyph glyph-name="guillemotright" unicode="&#xbb;" horiz-adv-x="944" 
 />
    <glyph glyph-name="onequarter" unicode="&#xbc;" horiz-adv-x="1632" 
d="M1161 295h180v352zM1337 0v170h-307v139l289 543h184v-553h82v-129h-82v-170h-166zM457 -29h-154l868 1579h156zM272 670v608h-215v102q58 0 105 11t81 31q68 39 81 116h118v-868h-170z" />
    <glyph glyph-name="onehalf" unicode="&#xbd;" horiz-adv-x="1632" 
d="M1042 0l-1 13l-1 14q0 99 46 190t141 178l52 46q61 50 83 79q17 23 28 54q9 30 9 67q0 55 -23 82q-21 27 -67 27q-47 0 -70 -33q-22 -35 -22 -105v-32h-168l-1 14l-1 14q0 134 63 197t203 63q129 0 198 -57q34 -28 52 -69t18 -95q0 -50 -13 -90q-6 -20 -15.5 -40.5
t-22.5 -41.5q-19 -29 -89 -91l-57 -52l-11 -12q-128 -126 -146 -183h342v-137h-527zM457 -29h-154l868 1579h156zM272 670v608h-215v102q58 0 105 11t81 31q68 39 81 116h118v-868h-170z" />
    <glyph glyph-name="threequarters" unicode="&#xbe;" horiz-adv-x="1632" 
d="M1161 295h180v352zM1337 0v170h-307v139l289 543h184v-553h82v-129h-82v-170h-166zM457 -29h-154l868 1579h156zM53 961h168v-11q0 -96 22 -136q23 -38 76 -38q54 0 75.5 34t21.5 122q0 86 -26.5 114.5t-102.5 28.5l-29 -1l-22 -1v113h14q84 0 116.5 26t32.5 95
q0 63 -19 88.5t-65 25.5q-45 0 -65.5 -28t-20.5 -90v-21h-168v33q0 110 66.5 166.5t196.5 56.5q120 0 184.5 -57.5t64.5 -165.5q0 -72 -27.5 -118t-82.5 -62q65 -15 99 -65.5t34 -137.5q0 -141 -69.5 -210t-211.5 -69q-133 0 -198.5 67t-65.5 206l1 16z" />
    <glyph glyph-name="ellipsis" unicode="&#x2026;" horiz-adv-x="2048" 
d="M213 0v276h258v-276h-258zM895 0v276h258v-276h-258zM1579 0v276h258v-276h-258z" />
    <glyph glyph-name="Ahuyen" unicode="&#xc0;" horiz-adv-x="1120" 
d="M430 618h244l-123 646zM18 0l347 1540h385l350 -1540h-309l-76 387h-330l-74 -387h-293zM702 1669h-125l-305 285h256z" />
    <glyph glyph-name="Asac" unicode="&#xc1;" horiz-adv-x="1120" 
d="M430 618h244l-123 646zM18 0l347 1540h385l350 -1540h-309l-76 387h-330l-74 -387h-293zM420 1669l174 285h256l-305 -285h-125z" />
    <glyph glyph-name="Ahoi" unicode="&#x1ea2;" horiz-adv-x="1120" 
d="M430 618h244l-123 646zM18 0l347 1540h385l350 -1540h-309l-76 387h-330l-74 -387h-293zM523 1907h-116v19q0 77 41.5 121t121.5 44q77 0 120.5 -43t43.5 -114q0 -27 -6 -50t-18 -43q-14 -25 -44 -59t-39 -47q-14 -18 -20.5 -40t-6.5 -49v-7l1 -11h-113l-2 15v17
q0 21 2.5 38.5t7.5 33.5q10 31 37 65l20 25q52 60 52 117q0 31 -11 45.5t-28 14.5q-19 0 -31 -17t-12 -57v-18z" />
    <glyph glyph-name="Anga" unicode="&#xc3;" horiz-adv-x="1120" 
d="M430 618h244l-123 646zM18 0l347 1540h385l350 -1540h-309l-76 387h-330l-74 -387h-293zM368 1681h-88q20 117 65.5 174.5t113.5 57.5q20 0 30 -2l31 -6l110 -33l23 -5l25 -1q30 0 48.5 18.5t27.5 56.5h88q-16 -110 -65 -173.5t-122 -63.5q-17 0 -26 2l-25 6l-121 35
l-16 4l-17 2q-31 0 -52 -18t-30 -54z" />
    <glyph glyph-name="Anang" unicode="&#x1ea0;" horiz-adv-x="1120" 
d="M430 618h244l-123 646zM18 0l347 1540h385l350 -1540h-309l-76 387h-330l-74 -387h-293zM449 -390v237h220v-237h-220z" />
    <glyph glyph-name="AA" unicode="&#xc2;" horiz-adv-x="1120" 
d="M430 618h244l-123 646zM18 0l347 1540h385l350 -1540h-309l-76 387h-330l-74 -387h-293zM285 1669l174 285h204l174 -285h-124l-152 150l-152 -150h-124z" />
    <glyph glyph-name="AAhuyen" unicode="&#x1ea6;" horiz-adv-x="1120" 
d="M430 618h244l-123 646zM18 0l347 1540h385l350 -1540h-309l-76 387h-330l-74 -387h-293zM285 1669l174 285h204l174 -285h-124l-152 150l-152 -150h-124zM922 1880h-125l-305 285h256z" />
    <glyph glyph-name="AAsac" unicode="&#x1ea4;" horiz-adv-x="1120" 
d="M430 618h244l-123 646zM18 0l347 1540h385l350 -1540h-309l-76 387h-330l-74 -387h-293zM285 1669l174 285h204l174 -285h-124l-152 150l-152 -150h-124zM914 2165h256l-305 -285h-125z" />
    <glyph glyph-name="AAhoi" unicode="&#x1ea8;" horiz-adv-x="1120" 
d="M430 618h244l-123 646zM18 0l347 1540h385l350 -1540h-309l-76 387h-330l-74 -387h-293zM285 1669l174 285h204l174 -285h-124l-152 150l-152 -150h-124zM800 2138h-116v19q0 77 41.5 121t121.5 44q77 0 120.5 -43t43.5 -114q0 -27 -6 -50t-18 -43q-14 -25 -44 -59
t-39 -47q-14 -18 -20.5 -40t-6.5 -49v-7l1 -11h-113l-2 15v17q0 21 2.5 38.5t7.5 33.5q10 31 37 65l20 25q52 60 52 117q0 31 -11 45.5t-28 14.5q-19 0 -31 -17t-12 -57v-18z" />
    <glyph glyph-name="AAnga" unicode="&#x1eaa;" horiz-adv-x="1120" 
d="M430 618h244l-123 646zM18 0l347 1540h385l350 -1540h-309l-76 387h-330l-74 -387h-293zM285 1669l174 285h204l174 -285h-124l-152 150l-152 -150h-124zM404 1965h-88q20 117 65.5 174.5t113.5 57.5q20 0 30 -2l31 -6l110 -33l23 -5l25 -1q30 0 48.5 18.5t27.5 56.5h88
q-16 -110 -65 -173.5t-122 -63.5q-17 0 -26 2l-25 6l-121 35l-16 4l-17 2q-31 0 -52 -18t-30 -54z" />
    <glyph glyph-name="AAnang" unicode="&#x1eac;" horiz-adv-x="1120" 
d="M430 618h244l-123 646zM18 0l347 1540h385l350 -1540h-309l-76 387h-330l-74 -387h-293zM285 1669l174 285h204l174 -285h-124l-152 150l-152 -150h-124zM449 -390v237h220v-237h-220z" />
    <glyph glyph-name="A(" unicode="&#x102;" horiz-adv-x="1120" 
d="M430 618h244l-123 646zM18 0l347 1540h385l350 -1540h-309l-76 387h-330l-74 -387h-293zM285 1907h114q10 -63 48.5 -93t111.5 -30q72 0 111.5 29.5t48.5 93.5h114q-14 -148 -80 -216.5t-194 -68.5q-125 0 -192 68.5t-82 216.5z" />
    <glyph glyph-name="A(huyen" unicode="&#x1eb0;" horiz-adv-x="1120" 
d="M430 618h244l-123 646zM18 0l347 1540h385l350 -1540h-309l-76 387h-330l-74 -387h-293zM285 1907h114q10 -63 48.5 -93t111.5 -30q72 0 111.5 29.5t48.5 93.5h114q-14 -148 -80 -216.5t-194 -68.5q-125 0 -192 68.5t-82 216.5zM647 1880h-125l-305 285h256z" />
    <glyph glyph-name="A(sac" unicode="&#x1eae;" horiz-adv-x="1120" 
d="M430 618h244l-123 646zM18 0l347 1540h385l350 -1540h-309l-76 387h-330l-74 -387h-293zM285 1907h114q10 -63 48.5 -93t111.5 -30q72 0 111.5 29.5t48.5 93.5h114q-14 -148 -80 -216.5t-194 -68.5q-125 0 -192 68.5t-82 216.5zM655 2165h256l-305 -285h-125z" />
    <glyph glyph-name="A(hoi" unicode="&#x1eb2;" horiz-adv-x="1120" 
d="M430 618h244l-123 646zM18 0l347 1540h385l350 -1540h-309l-76 387h-330l-74 -387h-293zM285 1907h114q10 -63 48.5 -93t111.5 -30q72 0 111.5 29.5t48.5 93.5h114q-14 -148 -80 -216.5t-194 -68.5q-125 0 -192 68.5t-82 216.5zM553 2157h-116v19q0 77 41.5 121t121.5 44
q77 0 120.5 -43t43.5 -114q0 -27 -6 -50t-18 -43q-14 -25 -44 -59t-39 -47q-14 -18 -20.5 -40t-6.5 -49v-7l1 -11h-113l-2 15v17q0 21 2.5 38.5t7.5 33.5q10 31 37 65l20 25q52 60 52 117q0 31 -11 45.5t-28 14.5q-19 0 -31 -17t-12 -57v-18z" />
    <glyph glyph-name="A(nga" unicode="&#x1eb4;" horiz-adv-x="1120" 
d="M430 618h244l-123 646zM18 0l347 1540h385l350 -1540h-309l-76 387h-330l-74 -387h-293zM285 1907h114q10 -63 48.5 -93t111.5 -30q72 0 111.5 29.5t48.5 93.5h114q-14 -148 -80 -216.5t-194 -68.5q-125 0 -192 68.5t-82 216.5zM404 1965h-88q20 117 65.5 174.5
t113.5 57.5q20 0 30 -2l31 -6l110 -33l23 -5l25 -1q30 0 48.5 18.5t27.5 56.5h88q-16 -110 -65 -173.5t-122 -63.5q-17 0 -26 2l-25 6l-121 35l-16 4l-17 2q-31 0 -52 -18t-30 -54z" />
    <glyph glyph-name="A(nang" unicode="&#x1eb6;" horiz-adv-x="1120" 
d="M430 618h244l-123 646zM18 0l347 1540h385l350 -1540h-309l-76 387h-330l-74 -387h-293zM285 1907h114q10 -63 48.5 -93t111.5 -30q72 0 111.5 29.5t48.5 93.5h114q-14 -148 -80 -216.5t-194 -68.5q-125 0 -192 68.5t-82 216.5zM449 -390v237h220v-237h-220z" />
    <glyph glyph-name="Ehuyen" unicode="&#xc8;" horiz-adv-x="1014" 
d="M131 0v1540h791v-256h-506v-356h471v-244h-471v-424h518v-260h-803zM659 1669h-125l-305 285h256z" />
    <glyph glyph-name="Esac" unicode="&#xc9;" horiz-adv-x="1014" 
d="M131 0v1540h791v-256h-506v-356h471v-244h-471v-424h518v-260h-803zM377 1669l174 285h256l-305 -285h-125z" />
    <glyph glyph-name="Ehoi" unicode="&#x1eba;" horiz-adv-x="1014" 
d="M131 0v1540h791v-256h-506v-356h471v-244h-471v-424h518v-260h-803zM523 1907h-116v19q0 77 41.5 121t121.5 44q77 0 120.5 -43t43.5 -114q0 -27 -6 -50t-18 -43q-14 -25 -44 -59t-39 -47q-14 -18 -20.5 -40t-6.5 -49v-7l1 -11h-113l-2 15v17q0 21 2.5 38.5t7.5 33.5
q10 31 37 65l20 25q52 60 52 117q0 31 -11 45.5t-28 14.5q-19 0 -31 -17t-12 -57v-18z" />
    <glyph glyph-name="Enga" unicode="&#x1ebc;" horiz-adv-x="1014" 
d="M131 0v1540h791v-256h-506v-356h471v-244h-471v-424h518v-260h-803zM368 1681h-88q20 117 65.5 174.5t113.5 57.5q20 0 30 -2l31 -6l110 -33l23 -5l25 -1q30 0 48.5 18.5t27.5 56.5h88q-16 -110 -65 -173.5t-122 -63.5q-17 0 -26 2l-25 6l-121 35l-16 4l-17 2
q-31 0 -52 -18t-30 -54z" />
    <glyph glyph-name="Enang" unicode="&#x1eb8;" horiz-adv-x="1014" 
d="M131 0v1540h791v-256h-506v-356h471v-244h-471v-424h518v-260h-803zM449 -390v237h220v-237h-220z" />
    <glyph glyph-name="Ê" unicode="&#xca;" horiz-adv-x="1014" 
d="M131 0v1540h791v-256h-506v-356h471v-244h-471v-424h518v-260h-803zM242 1669l174 285h204l174 -285h-124l-152 150l-152 -150h-124z" />
    <glyph glyph-name="EEhuyen" unicode="&#x1ec0;" horiz-adv-x="1014" 
d="M131 0v1540h791v-256h-506v-356h471v-244h-471v-424h518v-260h-803zM242 1669l174 285h204l174 -285h-124l-152 150l-152 -150h-124zM885 1880h-125l-305 285h256z" />
    <glyph glyph-name="EEsac" unicode="&#x1ebe;" horiz-adv-x="1014" 
d="M131 0v1540h791v-256h-506v-356h471v-244h-471v-424h518v-260h-803zM242 1669l174 285h204l174 -285h-124l-152 150l-152 -150h-124zM886 2165h256l-305 -285h-125z" />
    <glyph glyph-name="EEhoi" unicode="&#x1ec2;" horiz-adv-x="1014" 
d="M131 0v1540h791v-256h-506v-356h471v-244h-471v-424h518v-260h-803zM242 1669l174 285h204l174 -285h-124l-152 150l-152 -150h-124zM763 2138h-116v19q0 77 41.5 121t121.5 44q77 0 120.5 -43t43.5 -114q0 -27 -6 -50t-18 -43q-14 -25 -44 -59t-39 -47
q-14 -18 -20.5 -40t-6.5 -49v-7l1 -11h-113l-2 15v17q0 21 2.5 38.5t7.5 33.5q10 31 37 65l20 25q52 60 52 117q0 31 -11 45.5t-28 14.5q-19 0 -31 -17t-12 -57v-18z" />
    <glyph glyph-name="EEnga" unicode="&#x1ec4;" horiz-adv-x="1014" 
d="M131 0v1540h791v-256h-506v-356h471v-244h-471v-424h518v-260h-803zM242 1669l174 285h204l174 -285h-124l-152 150l-152 -150h-124zM367 1965h-88q20 117 65.5 174.5t113.5 57.5q20 0 30 -2l31 -6l110 -33l23 -5l25 -1q30 0 48.5 18.5t27.5 56.5h88q-16 -110 -65 -173.5
t-122 -63.5q-17 0 -26 2l-25 6l-121 35l-16 4l-17 2q-31 0 -52 -18t-30 -54z" />
    <glyph glyph-name="EEnang" unicode="&#x1ec6;" horiz-adv-x="1014" 
d="M131 0v1540h791v-256h-506v-356h471v-244h-471v-424h518v-260h-803zM242 1669l174 285h204l174 -285h-124l-152 150l-152 -150h-124zM449 -390v237h220v-237h-220z" />
    <glyph glyph-name="Ohuyen" unicode="&#xd2;" horiz-adv-x="1202" 
d="M393 770q0 -381 44.5 -479t164.5 -98q116 0 160.5 96.5t44.5 480.5q0 385 -44 482.5t-163 97.5q-118 0 -163 -98q-22 -49 -33 -168t-11 -314zM100 770q0 250 22.5 393.5t72.5 218.5q66 105 159.5 150t245.5 45q150 0 243.5 -44.5t162.5 -150.5q47 -73 71 -222
q11 -70 17 -169t6 -221q0 -249 -23 -393.5t-71 -218.5q-68 -106 -161 -150.5t-245 -44.5q-150 0 -243.5 45t-161.5 150q-48 74 -72 220q-11 71 -17 170t-6 222zM743 1669h-125l-305 285h256z" />
    <glyph glyph-name="Osac" unicode="&#xd3;" horiz-adv-x="1202" 
d="M393 770q0 -381 44.5 -479t164.5 -98q116 0 160.5 96.5t44.5 480.5q0 385 -44 482.5t-163 97.5q-118 0 -163 -98q-22 -49 -33 -168t-11 -314zM100 770q0 250 22.5 393.5t72.5 218.5q66 105 159.5 150t245.5 45q150 0 243.5 -44.5t162.5 -150.5q47 -73 71 -222
q11 -70 17 -169t6 -221q0 -249 -23 -393.5t-71 -218.5q-68 -106 -161 -150.5t-245 -44.5q-150 0 -243.5 45t-161.5 150q-48 74 -72 220q-11 71 -17 170t-6 222zM461 1669l174 285h256l-305 -285h-125z" />
    <glyph glyph-name="Ohoi" unicode="&#x1ece;" horiz-adv-x="1202" 
d="M393 770q0 -381 44.5 -479t164.5 -98q116 0 160.5 96.5t44.5 480.5q0 385 -44 482.5t-163 97.5q-118 0 -163 -98q-22 -49 -33 -168t-11 -314zM100 770q0 250 22.5 393.5t72.5 218.5q66 105 159.5 150t245.5 45q150 0 243.5 -44.5t162.5 -150.5q47 -73 71 -222
q11 -70 17 -169t6 -221q0 -249 -23 -393.5t-71 -218.5q-68 -106 -161 -150.5t-245 -44.5q-150 0 -243.5 45t-161.5 150q-48 74 -72 220q-11 71 -17 170t-6 222zM553 1907h-117v19q0 77 41.5 121t122.5 44q76 0 120 -43t44 -114q0 -27 -6 -50t-18 -43q-15 -25 -44.5 -59
t-39.5 -47q-13 -18 -20 -40t-7 -49l1 -7v-11h-113l-2 15v17q0 21 2.5 38.5t7.5 33.5q11 31 37 65l21 25q52 60 52 117q0 31 -11 45.5t-28 14.5q-20 0 -31.5 -17t-11.5 -57v-18z" />
    <glyph glyph-name="Onga" unicode="&#xd5;" horiz-adv-x="1202" 
d="M393 770q0 -381 44.5 -479t164.5 -98q116 0 160.5 96.5t44.5 480.5q0 385 -44 482.5t-163 97.5q-118 0 -163 -98q-22 -49 -33 -168t-11 -314zM100 770q0 250 22.5 393.5t72.5 218.5q66 105 159.5 150t245.5 45q150 0 243.5 -44.5t162.5 -150.5q47 -73 71 -222
q11 -70 17 -169t6 -221q0 -249 -23 -393.5t-71 -218.5q-68 -106 -161 -150.5t-245 -44.5q-150 0 -243.5 45t-161.5 150q-48 74 -72 220q-11 71 -17 170t-6 222zM409 1681h-88q20 117 65.5 174.5t113.5 57.5q20 0 30 -2l31 -6l110 -33l23 -5l25 -1q30 0 48.5 18.5t27.5 56.5
h88q-16 -110 -65 -173.5t-122 -63.5q-17 0 -26 2l-25 6l-121 35l-16 4l-17 2q-31 0 -52 -18t-30 -54z" />
    <glyph glyph-name="Onang" unicode="&#x1ecc;" horiz-adv-x="1202" 
d="M393 770q0 -381 44.5 -479t164.5 -98q116 0 160.5 96.5t44.5 480.5q0 385 -44 482.5t-163 97.5q-118 0 -163 -98q-22 -49 -33 -168t-11 -314zM100 770q0 250 22.5 393.5t72.5 218.5q66 105 159.5 150t245.5 45q150 0 243.5 -44.5t162.5 -150.5q47 -73 71 -222
q11 -70 17 -169t6 -221q0 -249 -23 -393.5t-71 -218.5q-68 -106 -161 -150.5t-245 -44.5q-150 0 -243.5 45t-161.5 150q-48 74 -72 220q-11 71 -17 170t-6 222zM490 -390v237h220v-237h-220z" />
    <glyph glyph-name="Ô" unicode="&#xd4;" horiz-adv-x="1202" 
d="M393 770q0 -381 44.5 -479t164.5 -98q116 0 160.5 96.5t44.5 480.5q0 385 -44 482.5t-163 97.5q-118 0 -163 -98q-22 -49 -33 -168t-11 -314zM100 770q0 250 22.5 393.5t72.5 218.5q66 105 159.5 150t245.5 45q150 0 243.5 -44.5t162.5 -150.5q47 -73 71 -222
q11 -70 17 -169t6 -221q0 -249 -23 -393.5t-71 -218.5q-68 -106 -161 -150.5t-245 -44.5q-150 0 -243.5 45t-161.5 150q-48 74 -72 220q-11 71 -17 170t-6 222zM326 1669l174 285h204l174 -285h-124l-152 150l-152 -150h-124z" />
    <glyph glyph-name="OOhuyen" unicode="&#x1ed2;" horiz-adv-x="1202" 
d="M393 770q0 -381 44.5 -479t164.5 -98q116 0 160.5 96.5t44.5 480.5q0 385 -44 482.5t-163 97.5q-118 0 -163 -98q-22 -49 -33 -168t-11 -314zM100 770q0 250 22.5 393.5t72.5 218.5q66 105 159.5 150t245.5 45q150 0 243.5 -44.5t162.5 -150.5q47 -73 71 -222
q11 -70 17 -169t6 -221q0 -249 -23 -393.5t-71 -218.5q-68 -106 -161 -150.5t-245 -44.5q-150 0 -243.5 45t-161.5 150q-48 74 -72 220q-11 71 -17 170t-6 222zM326 1669l174 285h204l174 -285h-124l-152 150l-152 -150h-124zM967 1880h-125l-305 285h256z" />
    <glyph glyph-name="OOsac" unicode="&#x1ed0;" horiz-adv-x="1202" 
d="M393 770q0 -381 44.5 -479t164.5 -98q116 0 160.5 96.5t44.5 480.5q0 385 -44 482.5t-163 97.5q-118 0 -163 -98q-22 -49 -33 -168t-11 -314zM100 770q0 250 22.5 393.5t72.5 218.5q66 105 159.5 150t245.5 45q150 0 243.5 -44.5t162.5 -150.5q47 -73 71 -222
q11 -70 17 -169t6 -221q0 -249 -23 -393.5t-71 -218.5q-68 -106 -161 -150.5t-245 -44.5q-150 0 -243.5 45t-161.5 150q-48 74 -72 220q-11 71 -17 170t-6 222zM326 1669l174 285h204l174 -285h-124l-152 150l-152 -150h-124zM976 2165h256l-305 -285h-125z" />
    <glyph glyph-name="OOhoi" unicode="&#x1ed4;" horiz-adv-x="1202" 
d="M393 770q0 -381 44.5 -479t164.5 -98q116 0 160.5 96.5t44.5 480.5q0 385 -44 482.5t-163 97.5q-118 0 -163 -98q-22 -49 -33 -168t-11 -314zM100 770q0 250 22.5 393.5t72.5 218.5q66 105 159.5 150t245.5 45q150 0 243.5 -44.5t162.5 -150.5q47 -73 71 -222
q11 -70 17 -169t6 -221q0 -249 -23 -393.5t-71 -218.5q-68 -106 -161 -150.5t-245 -44.5q-150 0 -243.5 45t-161.5 150q-48 74 -72 220q-11 71 -17 170t-6 222zM326 1669l174 285h204l174 -285h-124l-152 150l-152 -150h-124zM845 2138h-116v19q0 77 41.5 121t121.5 44
q77 0 120.5 -43t43.5 -114q0 -27 -6 -50t-18 -43q-14 -25 -44 -59t-39 -47q-14 -18 -20.5 -40t-6.5 -49v-7l1 -11h-113l-2 15v17q0 21 2.5 38.5t7.5 33.5q10 31 37 65l20 25q52 60 52 117q0 31 -11 45.5t-28 14.5q-19 0 -31 -17t-12 -57v-18z" />
    <glyph glyph-name="OOnga" unicode="&#x1ed6;" horiz-adv-x="1202" 
d="M393 770q0 -381 44.5 -479t164.5 -98q116 0 160.5 96.5t44.5 480.5q0 385 -44 482.5t-163 97.5q-118 0 -163 -98q-22 -49 -33 -168t-11 -314zM100 770q0 250 22.5 393.5t72.5 218.5q66 105 159.5 150t245.5 45q150 0 243.5 -44.5t162.5 -150.5q47 -73 71 -222
q11 -70 17 -169t6 -221q0 -249 -23 -393.5t-71 -218.5q-68 -106 -161 -150.5t-245 -44.5q-150 0 -243.5 45t-161.5 150q-48 74 -72 220q-11 71 -17 170t-6 222zM326 1669l174 285h204l174 -285h-124l-152 150l-152 -150h-124zM448 1965h-88q20 117 65.5 174.5t113.5 57.5
q20 0 30 -2l31 -6l110 -33l23 -5l25 -1q30 0 48.5 18.5t27.5 56.5h88q-16 -110 -65 -173.5t-122 -63.5q-17 0 -26 2l-25 6l-121 35l-16 4l-17 2q-31 0 -52 -18t-30 -54z" />
    <glyph glyph-name="OOnang" unicode="&#x1ed8;" horiz-adv-x="1202" 
d="M393 770q0 -381 44.5 -479t164.5 -98q116 0 160.5 96.5t44.5 480.5q0 385 -44 482.5t-163 97.5q-118 0 -163 -98q-22 -49 -33 -168t-11 -314zM100 770q0 250 22.5 393.5t72.5 218.5q66 105 159.5 150t245.5 45q150 0 243.5 -44.5t162.5 -150.5q47 -73 71 -222
q11 -70 17 -169t6 -221q0 -249 -23 -393.5t-71 -218.5q-68 -106 -161 -150.5t-245 -44.5q-150 0 -243.5 45t-161.5 150q-48 74 -72 220q-11 71 -17 170t-6 222zM326 1669l174 285h204l174 -285h-124l-152 150l-152 -150h-124zM490 -390v237h220v-237h-220z" />
    <glyph glyph-name="Ihuyen" unicode="&#xcc;" horiz-adv-x="549" 
d="M131 0v1540h287v-1540h-287zM415 1669h-125l-305 285h256z" />
    <glyph glyph-name="Isac" unicode="&#xcd;" horiz-adv-x="549" 
d="M131 0v1540h287v-1540h-287zM133 1669l174 285h256l-305 -285h-125z" />
    <glyph glyph-name="Ihoi" unicode="&#x1ec8;" horiz-adv-x="549" 
d="M131 0v1540h287v-1540h-287zM257 1907h-116v19q0 77 41.5 121t121.5 44q77 0 120.5 -43t43.5 -114q0 -27 -6 -50t-18 -43q-14 -25 -44 -59t-39 -47q-14 -18 -20.5 -40t-6.5 -49v-7l1 -11h-113l-2 15v17q0 21 2.5 38.5t7.5 33.5q10 31 37 65l20 25q52 60 52 117
q0 31 -11 45.5t-28 14.5q-19 0 -31 -17t-12 -57v-18z" />
    <glyph glyph-name="Inga" unicode="&#x128;" horiz-adv-x="549" 
d="M131 0v1540h287v-1540h-287zM112 1681h-88q20 117 65.5 174.5t113.5 57.5q20 0 30 -2l31 -6l110 -33l23 -5l25 -1q30 0 48.5 18.5t27.5 56.5h88q-16 -110 -65 -173.5t-122 -63.5q-17 0 -26 2l-25 6l-121 35l-16 4l-17 2q-31 0 -52 -18t-30 -54z" />
    <glyph glyph-name="Inang" unicode="&#x1eca;" horiz-adv-x="549" 
d="M131 0v1540h287v-1540h-287zM165 -390v237h220v-237h-220z" />
    <glyph glyph-name="Uhuyen" unicode="&#xd9;" horiz-adv-x="1223" 
d="M131 1540h287v-1038q0 -177 43.5 -241t154.5 -64q109 0 152 64.5t43 244.5v1034h283v-1063q0 -153 -17 -225t-59 -127q-61 -80 -164 -122q-52 -20 -111 -30t-131 -10q-263 0 -372 114t-109 400v1063zM753 1669h-125l-305 285h256z" />
    <glyph glyph-name="Usac" unicode="&#xda;" horiz-adv-x="1223" 
d="M131 1540h287v-1038q0 -177 43.5 -241t154.5 -64q109 0 152 64.5t43 244.5v1034h283v-1063q0 -153 -17 -225t-59 -127q-61 -80 -164 -122q-52 -20 -111 -30t-131 -10q-263 0 -372 114t-109 400v1063zM471 1669l174 285h256l-305 -285h-125z" />
    <glyph glyph-name="Uhoi" unicode="&#x1ee6;" horiz-adv-x="1223" 
d="M131 1540h287v-1038q0 -177 43.5 -241t154.5 -64q109 0 152 64.5t43 244.5v1034h283v-1063q0 -153 -17 -225t-59 -127q-61 -80 -164 -122q-52 -20 -111 -30t-131 -10q-263 0 -372 114t-109 400v1063zM565 1907h-116v19q0 77 41.5 121t121.5 44q77 0 120.5 -43t43.5 -114
q0 -27 -6 -50t-18 -43q-14 -25 -44 -59t-39 -47q-14 -18 -20.5 -40t-6.5 -49v-7l1 -11h-114l-1 15v17q0 21 2 38.5t8 33.5q10 31 37 65l20 25q52 60 52 117q0 31 -11 45.5t-28 14.5q-19 0 -31 -17t-12 -57v-18z" />
    <glyph glyph-name="Unga" unicode="&#x168;" horiz-adv-x="1223" 
d="M131 1540h287v-1038q0 -177 43.5 -241t154.5 -64q109 0 152 64.5t43 244.5v1034h283v-1063q0 -153 -17 -225t-59 -127q-61 -80 -164 -122q-52 -20 -111 -30t-131 -10q-263 0 -372 114t-109 400v1063zM420 1681h-88q20 117 65.5 174.5t113.5 57.5q20 0 30 -2l31 -6
l110 -33l23 -5l25 -1q30 0 48.5 18.5t27.5 56.5h88q-16 -110 -65 -173.5t-122 -63.5q-17 0 -26 2l-25 6l-121 35l-16 4l-17 2q-31 0 -52 -18t-30 -54z" />
    <glyph glyph-name="Unang" unicode="&#x1ee4;" horiz-adv-x="1223" 
d="M131 1540h287v-1038q0 -177 43.5 -241t154.5 -64q109 0 152 64.5t43 244.5v1034h283v-1063q0 -153 -17 -225t-59 -127q-61 -80 -164 -122q-52 -20 -111 -30t-131 -10q-263 0 -372 114t-109 400v1063zM503 -390v237h220v-237h-220z" />
    <glyph glyph-name="U)" unicode="&#x1af;" horiz-adv-x="1223" 
d="M1094 1366v-889q0 -153 -17 -225t-59 -127q-61 -80 -164 -122q-52 -20 -111 -30t-131 -10q-263 0 -372 114t-109 400v1063h287v-1038q0 -177 43.5 -241t154.5 -64q109 0 152 64.5t43 244.5v1034h283v-81q8 7 15 16q29 38 29 97v12h-107v213h199v-214q0 -98 -53 -160
q-34 -39 -83 -57z" />
    <glyph glyph-name="U)huyen" unicode="&#x1eea;" horiz-adv-x="1223" 
d="M753 1669h-125l-305 285h256zM1094 1366v-889q0 -153 -17 -225t-59 -127q-61 -80 -164 -122q-52 -20 -111 -30t-131 -10q-263 0 -372 114t-109 400v1063h287v-1038q0 -177 43.5 -241t154.5 -64q109 0 152 64.5t43 244.5v1034h283v-81q8 7 15 16q29 38 29 97v12h-107v213
h199v-214q0 -98 -53 -160q-34 -39 -83 -57z" />
    <glyph glyph-name="U)sac" unicode="&#x1ee8;" horiz-adv-x="1223" 
d="M471 1669l174 285h256l-305 -285h-125zM1094 1366v-889q0 -153 -17 -225t-59 -127q-61 -80 -164 -122q-52 -20 -111 -30t-131 -10q-263 0 -372 114t-109 400v1063h287v-1038q0 -177 43.5 -241t154.5 -64q109 0 152 64.5t43 244.5v1034h283v-81q8 7 15 16q29 38 29 97v12
h-107v213h199v-214q0 -98 -53 -160q-34 -39 -83 -57z" />
    <glyph glyph-name="U)hoi" unicode="&#x1eec;" horiz-adv-x="1223" 
d="M565 1907h-116v19q0 77 41.5 121t121.5 44q77 0 120.5 -43t43.5 -114q0 -27 -6 -50t-18 -43q-14 -25 -44 -59t-39 -47q-14 -18 -20.5 -40t-6.5 -49v-7l1 -11h-114l-1 15v17q0 21 2 38.5t8 33.5q10 31 37 65l20 25q52 60 52 117q0 31 -11 45.5t-28 14.5q-19 0 -31 -17
t-12 -57v-18zM1094 1366v-889q0 -153 -17 -225t-59 -127q-61 -80 -164 -122q-52 -20 -111 -30t-131 -10q-263 0 -372 114t-109 400v1063h287v-1038q0 -177 43.5 -241t154.5 -64q109 0 152 64.5t43 244.5v1034h283v-81q8 7 15 16q29 38 29 97v12h-107v213h199v-214
q0 -98 -53 -160q-34 -39 -83 -57z" />
    <glyph glyph-name="U)nga" unicode="&#x1eee;" horiz-adv-x="1223" 
d="M420 1681h-88q20 117 65.5 174.5t113.5 57.5q20 0 30 -2l31 -6l110 -33l23 -5l25 -1q30 0 48.5 18.5t27.5 56.5h88q-16 -110 -65 -173.5t-122 -63.5q-17 0 -26 2l-25 6l-121 35l-16 4l-17 2q-31 0 -52 -18t-30 -54zM1094 1366v-889q0 -153 -17 -225t-59 -127
q-61 -80 -164 -122q-52 -20 -111 -30t-131 -10q-263 0 -372 114t-109 400v1063h287v-1038q0 -177 43.5 -241t154.5 -64q109 0 152 64.5t43 244.5v1034h283v-81q8 7 15 16q29 38 29 97v12h-107v213h199v-214q0 -98 -53 -160q-34 -39 -83 -57z" />
    <glyph glyph-name="U)nang" unicode="&#x1ef0;" horiz-adv-x="1223" 
d="M503 -390v237h220v-237h-220zM1094 1366v-889q0 -153 -17 -225t-59 -127q-61 -80 -164 -122q-52 -20 -111 -30t-131 -10q-263 0 -372 114t-109 400v1063h287v-1038q0 -177 43.5 -241t154.5 -64q109 0 152 64.5t43 244.5v1034h283v-81q8 7 15 16q29 38 29 97v12h-107v213
h199v-214q0 -98 -53 -160q-34 -39 -83 -57z" />
    <glyph glyph-name="O)" unicode="&#x1a0;" horiz-adv-x="1202" 
d="M393 770q0 -381 44.5 -479t164.5 -98q116 0 160.5 96.5t44.5 480.5q0 385 -44 482.5t-163 97.5q-118 0 -163 -98q-22 -49 -33 -168t-11 -314zM100 770q0 250 22.5 393.5t72.5 218.5q66 105 159.5 150t245.5 45q150 0 243.5 -44.5t162.5 -150.5q47 -73 71 -222
q11 -70 17 -169t6 -221q0 -249 -23 -393.5t-71 -218.5q-68 -106 -161 -150.5t-245 -44.5q-150 0 -243.5 45t-161.5 150q-48 74 -72 220q-11 71 -17 170t-6 222zM884 1352v80q49 5 78 43t29 97v12h-107v213h199v-214q0 -98 -53 -160t-146 -71z" />
    <glyph glyph-name="O)huyen" unicode="&#x1edc;" horiz-adv-x="1202" 
d="M393 770q0 -381 44.5 -479t164.5 -98q116 0 160.5 96.5t44.5 480.5q0 385 -44 482.5t-163 97.5q-118 0 -163 -98q-22 -49 -33 -168t-11 -314zM743 1669h-125l-305 285h256zM946 1458q9 7 16 17q29 38 29 97v12h-107v213h199v-214q0 -98 -53 -160q-14 -17 -32 -30
q4 -5 8 -11q47 -73 71 -222q11 -70 17 -169t6 -221q0 -249 -23 -393.5t-71 -218.5q-68 -106 -161 -150.5t-245 -44.5q-150 0 -243.5 45t-161.5 150q-48 74 -72 220q-11 71 -17 170t-6 222q0 250 22.5 393.5t72.5 218.5q66 105 159.5 150t245.5 45q150 0 244 -44
q55 -27 102 -75z" />
    <glyph glyph-name="O)sac" unicode="&#x1eda;" horiz-adv-x="1202" 
d="M393 770q0 -381 44.5 -479t164.5 -98q116 0 160.5 96.5t44.5 480.5q0 385 -44 482.5t-163 97.5q-118 0 -163 -98q-22 -49 -33 -168t-11 -314zM461 1669l174 285h256l-305 -285h-125zM998 1393q4 -5 8 -11q47 -73 71 -222q11 -70 17 -169t6 -221q0 -249 -23 -393.5
t-71 -218.5q-68 -106 -161 -150.5t-245 -44.5q-150 0 -243.5 45t-161.5 150q-48 74 -72 220q-11 71 -17 170t-6 222q0 250 22.5 393.5t72.5 218.5q66 105 159.5 150t245.5 45q150 0 244 -44q55 -27 102 -75q9 7 16 17q29 38 29 97v12h-107v213h199v-214q0 -98 -53 -160
q-14 -17 -32 -30z" />
    <glyph glyph-name="O)hoi" unicode="&#x1ede;" horiz-adv-x="1202" 
d="M393 770q0 -381 44.5 -479t164.5 -98q116 0 160.5 96.5t44.5 480.5q0 385 -44 482.5t-163 97.5q-118 0 -163 -98q-22 -49 -33 -168t-11 -314zM553 1907h-117v19q0 77 41.5 121t122.5 44q76 0 120 -43t44 -114q0 -27 -6 -50t-18 -43q-15 -25 -44.5 -59t-39.5 -47
q-13 -18 -20 -40t-7 -49l1 -7v-11h-113l-2 15v17q0 21 2.5 38.5t7.5 33.5q11 31 37 65l21 25q52 60 52 117q0 31 -11 45.5t-28 14.5q-20 0 -31.5 -17t-11.5 -57v-18zM998 1393q4 -5 8 -11q47 -73 71 -222q11 -70 17 -169t6 -221q0 -249 -23 -393.5t-71 -218.5
q-68 -106 -161 -150.5t-245 -44.5q-150 0 -243.5 45t-161.5 150q-48 74 -72 220q-11 71 -17 170t-6 222q0 250 22.5 393.5t72.5 218.5q66 105 159.5 150t245.5 45q150 0 244 -44q55 -27 102 -75q9 7 16 17q29 38 29 97v12h-107v213h199v-214q0 -98 -53 -160q-14 -17 -32 -30
z" />
    <glyph glyph-name="O)nga" unicode="&#x1ee0;" horiz-adv-x="1202" 
d="M393 770q0 -381 44.5 -479t164.5 -98q116 0 160.5 96.5t44.5 480.5q0 385 -44 482.5t-163 97.5q-118 0 -163 -98q-22 -49 -33 -168t-11 -314zM409 1681h-88q20 117 65.5 174.5t113.5 57.5q20 0 30 -2l31 -6l110 -33l23 -5l25 -1q30 0 48.5 18.5t27.5 56.5h88
q-16 -110 -65 -173.5t-122 -63.5q-17 0 -26 2l-25 6l-121 35l-16 4l-17 2q-31 0 -52 -18t-30 -54zM998 1393q4 -5 8 -11q47 -73 71 -222q11 -70 17 -169t6 -221q0 -249 -23 -393.5t-71 -218.5q-68 -106 -161 -150.5t-245 -44.5q-150 0 -243.5 45t-161.5 150q-48 74 -72 220
q-11 71 -17 170t-6 222q0 250 22.5 393.5t72.5 218.5q66 105 159.5 150t245.5 45q150 0 244 -44q55 -27 102 -75q9 7 16 17q29 38 29 97v12h-107v213h199v-214q0 -98 -53 -160q-14 -17 -32 -30z" />
    <glyph glyph-name="O)nang" unicode="&#x1ee2;" horiz-adv-x="1202" 
d="M393 770q0 -381 44.5 -479t164.5 -98q116 0 160.5 96.5t44.5 480.5q0 385 -44 482.5t-163 97.5q-118 0 -163 -98q-22 -49 -33 -168t-11 -314zM490 -390v237h220v-237h-220zM998 1393q4 -5 8 -11q47 -73 71 -222q11 -70 17 -169t6 -221q0 -249 -23 -393.5t-71 -218.5
q-68 -106 -161 -150.5t-245 -44.5q-150 0 -243.5 45t-161.5 150q-48 74 -72 220q-11 71 -17 170t-6 222q0 250 22.5 393.5t72.5 218.5q66 105 159.5 150t245.5 45q150 0 244 -44q55 -27 102 -75q9 7 16 17q29 38 29 97v12h-107v213h199v-214q0 -98 -53 -160q-14 -17 -32 -30
z" />
    <glyph glyph-name="Yhuyen" unicode="&#x1ef2;" horiz-adv-x="1126" 
d="M422 0v653l-404 887h318l233 -579l230 579h309l-397 -887v-653h-289zM753 1669h-125l-305 285h256z" />
    <glyph glyph-name="Ysac" unicode="&#xdd;" horiz-adv-x="1126" 
d="M422 0v653l-404 887h318l233 -579l230 579h309l-397 -887v-653h-289zM471 1669l174 285h256l-305 -285h-125z" />
    <glyph glyph-name="Yhoi" unicode="&#x1ef6;" horiz-adv-x="1126" 
d="M422 0v653l-404 887h318l233 -579l230 579h309l-397 -887v-653h-289zM553 1907h-117v19q0 77 41.5 121t122.5 44q76 0 120 -43t44 -114q0 -27 -6 -50t-18 -43q-15 -25 -44.5 -59t-39.5 -47q-13 -18 -20 -40t-7 -49l1 -7v-11h-113l-2 15v17q0 21 2.5 38.5t7.5 33.5
q11 31 37 65l21 25q52 60 52 117q0 31 -11 45.5t-28 14.5q-20 0 -31.5 -17t-11.5 -57v-18z" />
    <glyph glyph-name="Ynga" unicode="&#x1ef8;" horiz-adv-x="1126" 
d="M422 0v653l-404 887h318l233 -579l230 579h309l-397 -887v-653h-289zM409 1681h-88q20 117 65.5 174.5t113.5 57.5q20 0 30 -2l31 -6l110 -33l23 -5l25 -1q30 0 48.5 18.5t27.5 56.5h88q-16 -110 -65 -173.5t-122 -63.5q-17 0 -26 2l-25 6l-121 35l-16 4l-17 2
q-31 0 -52 -18t-30 -54z" />
    <glyph glyph-name="Ynang" unicode="&#x1ef4;" horiz-adv-x="1126" 
d="M422 0v653l-404 887h318l233 -579l230 579h309l-397 -887v-653h-289zM463 -390v237h220v-237h-220z" />
    <glyph glyph-name="Ð" unicode="&#x110;" horiz-adv-x="1204" 
d="M412 700v-473h127q98 0 136 13.5t62 48.5q39 60 56.5 166t17.5 333t-20 328t-68 152q-24 26 -65 36.5t-123 10.5h-123v-328h166v-287h-166zM131 987v553h461q140 0 224 -24t138 -78q81 -78 114 -200q16 -59 25 -154t9 -220q0 -332 -22.5 -465t-76.5 -228t-150 -133
t-327 -38h-395v700h-140v287h140z" />
    <glyph glyph-name="dd" unicode="&#x111;" horiz-adv-x="995" 
d="M356 596q0 -136 6 -218.5t20 -118.5q26 -69 97 -69q79 0 109 60.5t30 253.5q0 305 -29.5 382t-109.5 77q-69 0 -96 -66.5t-27 -300.5zM625 121q-33 -76 -92 -114t-144 -38q-168 0 -236.5 133t-68.5 471q0 352 66.5 483.5t232.5 131.5q82 0 136.5 -31t90.5 -98v215h-229
v143h229v123h269v-123h159v-143h-159v-1274h-254v121z" />
    <glyph glyph-name="quoteleft" unicode="&#x2018;" horiz-adv-x="512" 
d="M369 1577v-98q-59 -7 -94 -51t-35 -111v-17h127v-262h-246v277q0 104 66.5 175.5t181.5 86.5z" />
    <glyph glyph-name="quoteright" unicode="&#x2019;" horiz-adv-x="512" 
d="M121 1004v98q61 8 94 50.5t33 111.5v16h-127v260h248v-274q0 -105 -66.5 -175t-181.5 -87z" />
    <glyph glyph-name="quotedblleft" unicode="&#x201c;" horiz-adv-x="907" 
d="M516 1038v277q0 104 67.5 175.5t180.5 86.5v-98q-59 -7 -94 -51t-35 -111v-17h127v-262h-246zM121 1038v277q0 104 66.5 175.5t181.5 86.5v-98q-59 -7 -94 -51t-35 -111v-17h127v-262h-246z" />
    <glyph glyph-name="quotedblright" unicode="&#x201d;" horiz-adv-x="907" 
d="M369 1540v-274q0 -105 -66.5 -175t-181.5 -87v98q61 8 94 50.5t33 111.5v16h-127v260h248zM764 1540v-274q0 -105 -66.5 -175t-181.5 -87v98q61 8 94 50.5t33 111.5v16h-127v260h248z" />
    <glyph glyph-name="ahuyen" unicode="&#xe0;" horiz-adv-x="993" 
d="M627 606q-150 -75 -204 -136t-54 -142q0 -77 28.5 -113.5t89.5 -36.5q69 0 104.5 61t35.5 183v184zM664 0q-8 11 -16 39l-13 73q-41 -68 -108 -105.5t-156 -37.5q-132 0 -205.5 89.5t-73.5 246.5q0 142 64 226t256 171l54 24q157 66 157 157q0 54 -30.5 84t-88.5 30
q-72 0 -107 -39.5t-35 -121.5v-23h-260q0 195 96 284t306 89t295.5 -82t85.5 -285v-653q0 -47 9 -87t30 -79h-260zM639 1280h-125l-305 285h256z" />
    <glyph glyph-name="asac" unicode="&#xe1;" horiz-adv-x="993" 
d="M627 606q-150 -75 -204 -136t-54 -142q0 -77 28.5 -113.5t89.5 -36.5q69 0 104.5 61t35.5 183v184zM664 0q-8 11 -16 39l-13 73q-41 -68 -108 -105.5t-156 -37.5q-132 0 -205.5 89.5t-73.5 246.5q0 142 64 226t256 171l54 24q157 66 157 157q0 54 -30.5 84t-88.5 30
q-72 0 -107 -39.5t-35 -121.5v-23h-260q0 195 96 284t306 89t295.5 -82t85.5 -285v-653q0 -47 9 -87t30 -79h-260zM357 1280l174 285h256l-305 -285h-125z" />
    <glyph glyph-name="ahoi" unicode="&#x1ea3;" horiz-adv-x="993" 
d="M627 606q-150 -75 -204 -136t-54 -142q0 -77 28.5 -113.5t89.5 -36.5q69 0 104.5 61t35.5 183v184zM664 0q-8 11 -16 39l-13 73q-41 -68 -108 -105.5t-156 -37.5q-132 0 -205.5 89.5t-73.5 246.5q0 142 64 226t256 171l54 24q157 66 157 157q0 54 -30.5 84t-88.5 30
q-72 0 -107 -39.5t-35 -121.5v-23h-260q0 195 96 284t306 89t295.5 -82t85.5 -285v-653q0 -47 9 -87t30 -79h-260zM456 1531h-116v19q0 77 41.5 121t121.5 44q77 0 120.5 -43t43.5 -114q0 -27 -6 -50t-18 -43q-14 -25 -44 -59t-39 -47q-14 -18 -20.5 -40t-6.5 -49v-7l1 -11
h-114l-1 15v17q0 21 2 38.5t8 33.5q10 31 37 65l20 25q52 60 52 117q0 31 -11 45.5t-28 14.5q-19 0 -31 -17t-12 -57v-18z" />
    <glyph glyph-name="anga" unicode="&#xe3;" horiz-adv-x="993" 
d="M627 606q-150 -75 -204 -136t-54 -142q0 -77 28.5 -113.5t89.5 -36.5q69 0 104.5 61t35.5 183v184zM664 0q-8 11 -16 39l-13 73q-41 -68 -108 -105.5t-156 -37.5q-132 0 -205.5 89.5t-73.5 246.5q0 142 64 226t256 171l54 24q157 66 157 157q0 54 -30.5 84t-88.5 30
q-72 0 -107 -39.5t-35 -121.5v-23h-260q0 195 96 284t306 89t295.5 -82t85.5 -285v-653q0 -47 9 -87t30 -79h-260zM305 1292h-88q20 117 65.5 174.5t113.5 57.5q20 0 30 -2l31 -6l110 -33l23 -5l25 -1q30 0 48.5 18.5t27.5 56.5h88q-16 -110 -65 -173.5t-122 -63.5
q-17 0 -26 2l-25 6l-121 35l-16 4l-17 2q-31 0 -52 -18t-30 -54z" />
    <glyph glyph-name="anang" unicode="&#x1ea1;" horiz-adv-x="993" 
d="M627 606q-150 -75 -204 -136t-54 -142q0 -77 28.5 -113.5t89.5 -36.5q69 0 104.5 61t35.5 183v184zM664 0q-8 11 -16 39l-13 73q-41 -68 -108 -105.5t-156 -37.5q-132 0 -205.5 89.5t-73.5 246.5q0 142 64 226t256 171l54 24q157 66 157 157q0 54 -30.5 84t-88.5 30
q-72 0 -107 -39.5t-35 -121.5v-23h-260q0 195 96 284t306 89t295.5 -82t85.5 -285v-653q0 -47 9 -87t30 -79h-260zM463 -390v237h220v-237h-220z" />
    <glyph glyph-name="aa" unicode="&#xe2;" horiz-adv-x="993" 
d="M627 606q-150 -75 -204 -136t-54 -142q0 -77 28.5 -113.5t89.5 -36.5q69 0 104.5 61t35.5 183v184zM664 0q-8 11 -16 39l-13 73q-41 -68 -108 -105.5t-156 -37.5q-132 0 -205.5 89.5t-73.5 246.5q0 142 64 226t256 171l54 24q157 66 157 157q0 54 -30.5 84t-88.5 30
q-72 0 -107 -39.5t-35 -121.5v-23h-260q0 195 96 284t306 89t295.5 -82t85.5 -285v-653q0 -47 9 -87t30 -79h-260zM222 1280l174 285h204l174 -285h-124l-152 150l-152 -150h-124z" />
    <glyph glyph-name="aahuyen" unicode="&#x1ea7;" horiz-adv-x="993" 
d="M627 606q-150 -75 -204 -136t-54 -142q0 -77 28.5 -113.5t89.5 -36.5q69 0 104.5 61t35.5 183v184zM664 0q-8 11 -16 39l-13 73q-41 -68 -108 -105.5t-156 -37.5q-132 0 -205.5 89.5t-73.5 246.5q0 142 64 226t256 171l54 24q157 66 157 157q0 54 -30.5 84t-88.5 30
q-72 0 -107 -39.5t-35 -121.5v-23h-260q0 195 96 284t306 89t295.5 -82t85.5 -285v-653q0 -47 9 -87t30 -79h-260zM222 1280l174 285h204l174 -285h-124l-152 150l-152 -150h-124zM850 1491h-125l-305 285h256z" />
    <glyph glyph-name="aasac" unicode="&#x1ea5;" horiz-adv-x="993" 
d="M627 606q-150 -75 -204 -136t-54 -142q0 -77 28.5 -113.5t89.5 -36.5q69 0 104.5 61t35.5 183v184zM664 0q-8 11 -16 39l-13 73q-41 -68 -108 -105.5t-156 -37.5q-132 0 -205.5 89.5t-73.5 246.5q0 142 64 226t256 171l54 24q157 66 157 157q0 54 -30.5 84t-88.5 30
q-72 0 -107 -39.5t-35 -121.5v-23h-260q0 195 96 284t306 89t295.5 -82t85.5 -285v-653q0 -47 9 -87t30 -79h-260zM222 1280l174 285h204l174 -285h-124l-152 150l-152 -150h-124zM842 1776h256l-305 -285h-125z" />
    <glyph glyph-name="aahoi" unicode="&#x1ea9;" horiz-adv-x="993" 
d="M627 606q-150 -75 -204 -136t-54 -142q0 -77 28.5 -113.5t89.5 -36.5q69 0 104.5 61t35.5 183v184zM664 0q-8 11 -16 39l-13 73q-41 -68 -108 -105.5t-156 -37.5q-132 0 -205.5 89.5t-73.5 246.5q0 142 64 226t256 171l54 24q157 66 157 157q0 54 -30.5 84t-88.5 30
q-72 0 -107 -39.5t-35 -121.5v-23h-260q0 195 96 284t306 89t295.5 -82t85.5 -285v-653q0 -47 9 -87t30 -79h-260zM222 1280l174 285h204l174 -285h-124l-152 150l-152 -150h-124zM722 1752h-116v19q0 77 41.5 121t121.5 44q77 0 120.5 -43t43.5 -114q0 -27 -6 -50t-18 -43
q-14 -25 -44 -59t-39 -47q-14 -18 -20.5 -40t-6.5 -49v-7l1 -11h-114l-1 15v17q0 21 2 38.5t8 33.5q10 31 37 65l20 25q52 60 52 117q0 31 -11 45.5t-28 14.5q-19 0 -31 -17t-12 -57v-18z" />
    <glyph glyph-name="aanga" unicode="&#x1eab;" horiz-adv-x="993" 
d="M627 606q-150 -75 -204 -136t-54 -142q0 -77 28.5 -113.5t89.5 -36.5q69 0 104.5 61t35.5 183v184zM664 0q-8 11 -16 39l-13 73q-41 -68 -108 -105.5t-156 -37.5q-132 0 -205.5 89.5t-73.5 246.5q0 142 64 226t256 171l54 24q157 66 157 157q0 54 -30.5 84t-88.5 30
q-72 0 -107 -39.5t-35 -121.5v-23h-260q0 195 96 284t306 89t295.5 -82t85.5 -285v-653q0 -47 9 -87t30 -79h-260zM222 1280l174 285h204l174 -285h-124l-152 150l-152 -150h-124zM342 1586h-88q20 117 65.5 174.5t113.5 57.5q20 0 30 -2l31 -6l110 -33l23 -5l25 -1
q30 0 48.5 18.5t27.5 56.5h88q-16 -110 -65 -173.5t-122 -63.5q-17 0 -26 2l-25 6l-121 35l-16 4l-17 2q-31 0 -52 -18t-30 -54z" />
    <glyph glyph-name="aanang" unicode="&#x1ead;" horiz-adv-x="993" 
d="M627 606q-150 -75 -204 -136t-54 -142q0 -77 28.5 -113.5t89.5 -36.5q69 0 104.5 61t35.5 183v184zM664 0q-8 11 -16 39l-13 73q-41 -68 -108 -105.5t-156 -37.5q-132 0 -205.5 89.5t-73.5 246.5q0 142 64 226t256 171l54 24q157 66 157 157q0 54 -30.5 84t-88.5 30
q-72 0 -107 -39.5t-35 -121.5v-23h-260q0 195 96 284t306 89t295.5 -82t85.5 -285v-653q0 -47 9 -87t30 -79h-260zM222 1280l174 285h204l174 -285h-124l-152 150l-152 -150h-124zM463 -390v237h220v-237h-220z" />
    <glyph glyph-name="a(" unicode="&#x103;" horiz-adv-x="993" 
d="M627 606q-150 -75 -204 -136t-54 -142q0 -77 28.5 -113.5t89.5 -36.5q69 0 104.5 61t35.5 183v184zM664 0q-8 11 -16 39l-13 73q-41 -68 -108 -105.5t-156 -37.5q-132 0 -205.5 89.5t-73.5 246.5q0 142 64 226t256 171l54 24q157 66 157 157q0 54 -30.5 84t-88.5 30
q-72 0 -107 -39.5t-35 -121.5v-23h-260q0 195 96 284t306 89t295.5 -82t85.5 -285v-653q0 -47 9 -87t30 -79h-260zM224 1565h114q10 -63 48.5 -93t111.5 -30q72 0 111.5 29.5t48.5 93.5h114q-14 -148 -80 -216.5t-194 -68.5q-125 0 -192 68.5t-82 216.5z" />
    <glyph glyph-name="a(huyen" unicode="&#x1eb1;" horiz-adv-x="993" 
d="M627 606q-150 -75 -204 -136t-54 -142q0 -77 28.5 -113.5t89.5 -36.5q69 0 104.5 61t35.5 183v184zM664 0q-8 11 -16 39l-13 73q-41 -68 -108 -105.5t-156 -37.5q-132 0 -205.5 89.5t-73.5 246.5q0 142 64 226t256 171l54 24q157 66 157 157q0 54 -30.5 84t-88.5 30
q-72 0 -107 -39.5t-35 -121.5v-23h-260q0 195 96 284t306 89t295.5 -82t85.5 -285v-653q0 -47 9 -87t30 -79h-260zM224 1565h114q10 -63 48.5 -93t111.5 -30q72 0 111.5 29.5t48.5 93.5h114q-14 -148 -80 -216.5t-194 -68.5q-125 0 -192 68.5t-82 216.5zM602 1528h-125
l-305 285h256z" />
    <glyph glyph-name="a(sac" unicode="&#x1eaf;" horiz-adv-x="993" 
d="M627 606q-150 -75 -204 -136t-54 -142q0 -77 28.5 -113.5t89.5 -36.5q69 0 104.5 61t35.5 183v184zM664 0q-8 11 -16 39l-13 73q-41 -68 -108 -105.5t-156 -37.5q-132 0 -205.5 89.5t-73.5 246.5q0 142 64 226t256 171l54 24q157 66 157 157q0 54 -30.5 84t-88.5 30
q-72 0 -107 -39.5t-35 -121.5v-23h-260q0 195 96 284t306 89t295.5 -82t85.5 -285v-653q0 -47 9 -87t30 -79h-260zM224 1565h114q10 -63 48.5 -93t111.5 -30q72 0 111.5 29.5t48.5 93.5h114q-14 -148 -80 -216.5t-194 -68.5q-125 0 -192 68.5t-82 216.5zM575 1822h256
l-305 -285h-125z" />
    <glyph glyph-name="a(hoi" unicode="&#x1eb3;" horiz-adv-x="993" 
d="M627 606q-150 -75 -204 -136t-54 -142q0 -77 28.5 -113.5t89.5 -36.5q69 0 104.5 61t35.5 183v184zM664 0q-8 11 -16 39l-13 73q-41 -68 -108 -105.5t-156 -37.5q-132 0 -205.5 89.5t-73.5 246.5q0 142 64 226t256 171l54 24q157 66 157 157q0 54 -30.5 84t-88.5 30
q-72 0 -107 -39.5t-35 -121.5v-23h-260q0 195 96 284t306 89t295.5 -82t85.5 -285v-653q0 -47 9 -87t30 -79h-260zM224 1565h114q10 -63 48.5 -93t111.5 -30q72 0 111.5 29.5t48.5 93.5h114q-14 -148 -80 -216.5t-194 -68.5q-125 0 -192 68.5t-82 216.5zM484 1798h-116v19
q0 77 41.5 121t121.5 44q77 0 120.5 -43t43.5 -114q0 -27 -6 -50t-18 -43q-14 -25 -44 -59t-39 -47q-14 -18 -20.5 -40t-6.5 -49v-7l1 -11h-114l-1 15v17q0 21 2 38.5t8 33.5q10 31 37 65l20 25q52 60 52 117q0 31 -11 45.5t-28 14.5q-19 0 -31 -17t-12 -57v-18z" />
    <glyph glyph-name="a(nga" unicode="&#x1eb5;" horiz-adv-x="993" 
d="M627 606q-150 -75 -204 -136t-54 -142q0 -77 28.5 -113.5t89.5 -36.5q69 0 104.5 61t35.5 183v184zM664 0q-8 11 -16 39l-13 73q-41 -68 -108 -105.5t-156 -37.5q-132 0 -205.5 89.5t-73.5 246.5q0 142 64 226t256 171l54 24q157 66 157 157q0 54 -30.5 84t-88.5 30
q-72 0 -107 -39.5t-35 -121.5v-23h-260q0 195 96 284t306 89t295.5 -82t85.5 -285v-653q0 -47 9 -87t30 -79h-260zM224 1565h114q10 -63 48.5 -93t111.5 -30q72 0 111.5 29.5t48.5 93.5h114q-14 -148 -80 -216.5t-194 -68.5q-125 0 -192 68.5t-82 216.5zM360 1586h-88
q20 117 65.5 174.5t113.5 57.5q20 0 30 -2l31 -6l110 -33l23 -5l25 -1q30 0 48.5 18.5t27.5 56.5h88q-16 -110 -65 -173.5t-122 -63.5q-17 0 -26 2l-25 6l-121 35l-16 4l-17 2q-31 0 -52 -18t-30 -54z" />
    <glyph glyph-name="a(nang" unicode="&#x1eb7;" horiz-adv-x="993" 
d="M627 606q-150 -75 -204 -136t-54 -142q0 -77 28.5 -113.5t89.5 -36.5q69 0 104.5 61t35.5 183v184zM664 0q-8 11 -16 39l-13 73q-41 -68 -108 -105.5t-156 -37.5q-132 0 -205.5 89.5t-73.5 246.5q0 142 64 226t256 171l54 24q157 66 157 157q0 54 -30.5 84t-88.5 30
q-72 0 -107 -39.5t-35 -121.5v-23h-260q0 195 96 284t306 89t295.5 -82t85.5 -285v-653q0 -47 9 -87t30 -79h-260zM224 1565h114q10 -63 48.5 -93t111.5 -30q72 0 111.5 29.5t48.5 93.5h114q-14 -148 -80 -216.5t-194 -68.5q-125 0 -192 68.5t-82 216.5zM463 -390v237h220
v-237h-220z" />
    <glyph glyph-name="ehuyen" unicode="&#xe8;" horiz-adv-x="975" 
d="M358 725h260v49q0 119 -29 164t-102 45q-70 0 -100.5 -46t-30.5 -163l1 -17zM627 397h252l1 -23l1 -22q0 -199 -94.5 -291t-299.5 -92q-107 0 -180 27t-121 84q-55 65 -79 169q-11 50 -17 142t-6 225q0 213 20 302.5t69 149t129 89.5q41 15 88.5 23t103.5 8
q106 0 184.5 -32.5t128.5 -98.5q42 -56 61 -146q9 -43 14 -114t5 -168v-88h-526l-3 -28v-46q0 -165 30 -231t104 -66q71 0 103 54t32 173zM628 1280h-125l-305 285h256z" />
    <glyph glyph-name="esac" unicode="&#xe9;" horiz-adv-x="975" 
d="M358 725h260v49q0 119 -29 164t-102 45q-70 0 -100.5 -46t-30.5 -163l1 -17zM627 397h252l1 -23l1 -22q0 -199 -94.5 -291t-299.5 -92q-107 0 -180 27t-121 84q-55 65 -79 169q-11 50 -17 142t-6 225q0 213 20 302.5t69 149t129 89.5q41 15 88.5 23t103.5 8
q106 0 184.5 -32.5t128.5 -98.5q42 -56 61 -146q9 -43 14 -114t5 -168v-88h-526l-3 -28v-46q0 -165 30 -231t104 -66q71 0 103 54t32 173zM346 1280l174 285h256l-305 -285h-125z" />
    <glyph glyph-name="ehoi" unicode="&#x1ebb;" horiz-adv-x="975" 
d="M358 725h260v49q0 119 -29 164t-102 45q-70 0 -100.5 -46t-30.5 -163l1 -17zM627 397h252l1 -23l1 -22q0 -199 -94.5 -291t-299.5 -92q-107 0 -180 27t-121 84q-55 65 -79 169q-11 50 -17 142t-6 225q0 213 20 302.5t69 149t129 89.5q41 15 88.5 23t103.5 8
q106 0 184.5 -32.5t128.5 -98.5q42 -56 61 -146q9 -43 14 -114t5 -168v-88h-526l-3 -28v-46q0 -165 30 -231t104 -66q71 0 103 54t32 173zM456 1531h-116v19q0 77 41.5 121t121.5 44q77 0 120.5 -43t43.5 -114q0 -27 -6 -50t-18 -43q-14 -25 -44 -59t-39 -47
q-14 -18 -20.5 -40t-6.5 -49v-7l1 -11h-114l-1 15v17q0 21 2 38.5t8 33.5q10 31 37 65l20 25q52 60 52 117q0 31 -11 45.5t-28 14.5q-19 0 -31 -17t-12 -57v-18z" />
    <glyph glyph-name="enga" unicode="&#x1ebd;" horiz-adv-x="975" 
d="M358 725h260v49q0 119 -29 164t-102 45q-70 0 -100.5 -46t-30.5 -163l1 -17zM627 397h252l1 -23l1 -22q0 -199 -94.5 -291t-299.5 -92q-107 0 -180 27t-121 84q-55 65 -79 169q-11 50 -17 142t-6 225q0 213 20 302.5t69 149t129 89.5q41 15 88.5 23t103.5 8
q106 0 184.5 -32.5t128.5 -98.5q42 -56 61 -146q9 -43 14 -114t5 -168v-88h-526l-3 -28v-46q0 -165 30 -231t104 -66q71 0 103 54t32 173zM305 1292h-88q20 117 65.5 174.5t113.5 57.5q20 0 30 -2l31 -6l110 -33l23 -5l25 -1q30 0 48.5 18.5t27.5 56.5h88
q-16 -110 -65 -173.5t-122 -63.5q-17 0 -26 2l-25 6l-121 35l-16 4l-17 2q-31 0 -52 -18t-30 -54z" />
    <glyph glyph-name="enang" unicode="&#x1eb9;" horiz-adv-x="975" 
d="M358 725h260v49q0 119 -29 164t-102 45q-70 0 -100.5 -46t-30.5 -163l1 -17zM627 397h252l1 -23l1 -22q0 -199 -94.5 -291t-299.5 -92q-107 0 -180 27t-121 84q-55 65 -79 169q-11 50 -17 142t-6 225q0 213 20 302.5t69 149t129 89.5q41 15 88.5 23t103.5 8
q106 0 184.5 -32.5t128.5 -98.5q42 -56 61 -146q9 -43 14 -114t5 -168v-88h-526l-3 -28v-46q0 -165 30 -231t104 -66q71 0 103 54t32 173zM376 -390v237h220v-237h-220z" />
    <glyph glyph-name="ê" unicode="&#xea;" horiz-adv-x="975" 
d="M358 725h260v49q0 119 -29 164t-102 45q-70 0 -100.5 -46t-30.5 -163l1 -17zM627 397h252l1 -23l1 -22q0 -199 -94.5 -291t-299.5 -92q-107 0 -180 27t-121 84q-55 65 -79 169q-11 50 -17 142t-6 225q0 213 20 302.5t69 149t129 89.5q41 15 88.5 23t103.5 8
q106 0 184.5 -32.5t128.5 -98.5q42 -56 61 -146q9 -43 14 -114t5 -168v-88h-526l-3 -28v-46q0 -165 30 -231t104 -66q71 0 103 54t32 173zM211 1280l174 285h204l174 -285h-124l-152 150l-152 -150h-124z" />
    <glyph glyph-name="eehuyen" unicode="&#x1ec1;" horiz-adv-x="975" 
d="M358 725h260v49q0 119 -29 164t-102 45q-70 0 -100.5 -46t-30.5 -163l1 -17zM627 397h252l1 -23l1 -22q0 -199 -94.5 -291t-299.5 -92q-107 0 -180 27t-121 84q-55 65 -79 169q-11 50 -17 142t-6 225q0 213 20 302.5t69 149t129 89.5q41 15 88.5 23t103.5 8
q106 0 184.5 -32.5t128.5 -98.5q42 -56 61 -146q9 -43 14 -114t5 -168v-88h-526l-3 -28v-46q0 -165 30 -231t104 -66q71 0 103 54t32 173zM211 1280l174 285h204l174 -285h-124l-152 150l-152 -150h-124zM840 1491h-125l-305 285h256z" />
    <glyph glyph-name="eesac" unicode="&#x1ebf;" horiz-adv-x="975" 
d="M358 725h260v49q0 119 -29 164t-102 45q-70 0 -100.5 -46t-30.5 -163l1 -17zM627 397h252l1 -23l1 -22q0 -199 -94.5 -291t-299.5 -92q-107 0 -180 27t-121 84q-55 65 -79 169q-11 50 -17 142t-6 225q0 213 20 302.5t69 149t129 89.5q41 15 88.5 23t103.5 8
q106 0 184.5 -32.5t128.5 -98.5q42 -56 61 -146q9 -43 14 -114t5 -168v-88h-526l-3 -28v-46q0 -165 30 -231t104 -66q71 0 103 54t32 173zM211 1280l174 285h204l174 -285h-124l-152 150l-152 -150h-124zM832 1776h256l-305 -285h-125z" />
    <glyph glyph-name="eehoi" unicode="&#x1ec3;" horiz-adv-x="975" 
d="M358 725h260v49q0 119 -29 164t-102 45q-70 0 -100.5 -46t-30.5 -163l1 -17zM627 397h252l1 -23l1 -22q0 -199 -94.5 -291t-299.5 -92q-107 0 -180 27t-121 84q-55 65 -79 169q-11 50 -17 142t-6 225q0 213 20 302.5t69 149t129 89.5q41 15 88.5 23t103.5 8
q106 0 184.5 -32.5t128.5 -98.5q42 -56 61 -146q9 -43 14 -114t5 -168v-88h-526l-3 -28v-46q0 -165 30 -231t104 -66q71 0 103 54t32 173zM211 1280l174 285h204l174 -285h-124l-152 150l-152 -150h-124zM713 1752h-116v19q0 77 41.5 121t121.5 44q77 0 120.5 -43t43.5 -114
q0 -27 -6 -50t-18 -43q-14 -25 -44 -59t-39 -47q-14 -18 -20.5 -40t-6.5 -49v-7l1 -11h-114l-1 15v17q0 21 2 38.5t8 33.5q10 31 37 65l20 25q52 60 52 117q0 31 -11 45.5t-28 14.5q-19 0 -31 -17t-12 -57v-18z" />
    <glyph glyph-name="eenga" unicode="&#x1ec5;" horiz-adv-x="975" 
d="M358 725h260v49q0 119 -29 164t-102 45q-70 0 -100.5 -46t-30.5 -163l1 -17zM627 397h252l1 -23l1 -22q0 -199 -94.5 -291t-299.5 -92q-107 0 -180 27t-121 84q-55 65 -79 169q-11 50 -17 142t-6 225q0 213 20 302.5t69 149t129 89.5q41 15 88.5 23t103.5 8
q106 0 184.5 -32.5t128.5 -98.5q42 -56 61 -146q9 -43 14 -114t5 -168v-88h-526l-3 -28v-46q0 -165 30 -231t104 -66q71 0 103 54t32 173zM211 1280l174 285h204l174 -285h-124l-152 150l-152 -150h-124zM342 1586h-88q20 117 65.5 174.5t113.5 57.5q20 0 30 -2l31 -6
l110 -33l23 -5l25 -1q30 0 48.5 18.5t27.5 56.5h88q-16 -110 -65 -173.5t-122 -63.5q-17 0 -26 2l-25 6l-121 35l-16 4l-17 2q-31 0 -52 -18t-30 -54z" />
    <glyph glyph-name="eenang" unicode="&#x1ec7;" horiz-adv-x="975" 
d="M358 725h260v49q0 119 -29 164t-102 45q-70 0 -100.5 -46t-30.5 -163l1 -17zM627 397h252l1 -23l1 -22q0 -199 -94.5 -291t-299.5 -92q-107 0 -180 27t-121 84q-55 65 -79 169q-11 50 -17 142t-6 225q0 213 20 302.5t69 149t129 89.5q41 15 88.5 23t103.5 8
q106 0 184.5 -32.5t128.5 -98.5q42 -56 61 -146q9 -43 14 -114t5 -168v-88h-526l-3 -28v-46q0 -165 30 -231t104 -66q71 0 103 54t32 173zM211 1280l174 285h204l174 -285h-124l-152 150l-152 -150h-124zM376 -390v237h220v-237h-220z" />
    <glyph glyph-name="igrave" unicode="&#xec;" horiz-adv-x="496" 
d="M115 0v1157h266v-1157h-266zM389 1280h-125l-305 285h256z" />
    <glyph glyph-name="iacute" unicode="&#xed;" horiz-adv-x="496" 
d="M115 0v1157h266v-1157h-266zM107 1280l174 285h256l-305 -285h-125z" />
    <glyph glyph-name="icircumflex" unicode="&#x1ec9;" horiz-adv-x="496" 
d="M115 0v1157h266v-1157h-266zM218 1531h-117v19q0 77 41.5 121t121.5 44q77 0 121 -43t44 -114q0 -27 -6.5 -50t-17.5 -43q-15 -25 -45 -59t-39 -47q-13 -18 -20 -40t-7 -49v-7l1 -11h-113l-2 15v17q0 21 2.5 38.5t7.5 33.5q10 31 37 65l20 25q52 60 52 117q0 31 -11 45.5
t-28 14.5q-19 0 -30.5 -17t-11.5 -57v-18z" />
    <glyph glyph-name="idieresis" unicode="&#x129;" horiz-adv-x="496" 
d="M115 0v1157h266v-1157h-266zM76 1292h-88q20 117 65.5 174.5t113.5 57.5q20 0 30 -2l31 -6l110 -33l23 -5l25 -1q30 0 48.5 18.5t27.5 56.5h88q-16 -110 -65 -173.5t-122 -63.5q-17 0 -26 2l-25 6l-121 35l-16 4l-17 2q-31 0 -52 -18t-30 -54z" />
    <glyph glyph-name="uni1ECB" unicode="&#x1ecb;" horiz-adv-x="496" 
d="M115 1300v240h266v-240h-266zM115 0v1157h266v-1157h-266zM138 -390v237h220v-237h-220z" />
    <glyph glyph-name="ograve" unicode="&#xf2;" horiz-adv-x="979" 
d="M356 590v-27q0 -267 27 -328t104 -61q80 0 108 56q14 29 21 101t7 193v47v66q0 228 -29 285q-27 59 -105 59q-75 0 -104 -54t-29 -257v-80zM82 578q0 349 90.5 479.5t316.5 130.5q228 0 318 -129.5t90 -480.5q0 -349 -90 -479t-318 -130q-225 0 -316 129t-91 480z
M630 1280h-125l-305 285h256z" />
    <glyph glyph-name="oacute" unicode="&#xf3;" horiz-adv-x="979" 
d="M356 590v-27q0 -267 27 -328t104 -61q80 0 108 56q14 29 21 101t7 193v47v66q0 228 -29 285q-27 59 -105 59q-75 0 -104 -54t-29 -257v-80zM82 578q0 349 90.5 479.5t316.5 130.5q228 0 318 -129.5t90 -480.5q0 -349 -90 -479t-318 -130q-225 0 -316 129t-91 480z
M348 1280l174 285h256l-305 -285h-125z" />
    <glyph glyph-name="ocircumflex" unicode="&#x1ecf;" horiz-adv-x="979" 
d="M356 590v-27q0 -267 27 -328t104 -61q80 0 108 56q14 29 21 101t7 193v47v66q0 228 -29 285q-27 59 -105 59q-75 0 -104 -54t-29 -257v-80zM82 578q0 349 90.5 479.5t316.5 130.5q228 0 318 -129.5t90 -480.5q0 -349 -90 -479t-318 -130q-225 0 -316 129t-91 480z
M456 1531h-116v19q0 77 41.5 121t121.5 44q77 0 120.5 -43t43.5 -114q0 -27 -6 -50t-18 -43q-14 -25 -44 -59t-39 -47q-14 -18 -20.5 -40t-6.5 -49v-7l1 -11h-114l-1 15v17q0 21 2 38.5t8 33.5q10 31 37 65l20 25q52 60 52 117q0 31 -11 45.5t-28 14.5q-19 0 -31 -17
t-12 -57v-18z" />
    <glyph glyph-name="otilde" unicode="&#xf5;" horiz-adv-x="979" 
d="M356 590v-27q0 -267 27 -328t104 -61q80 0 108 56q14 29 21 101t7 193v47v66q0 228 -29 285q-27 59 -105 59q-75 0 -104 -54t-29 -257v-80zM82 578q0 349 90.5 479.5t316.5 130.5q228 0 318 -129.5t90 -480.5q0 -349 -90 -479t-318 -130q-225 0 -316 129t-91 480z
M296 1292h-88q20 117 65.5 174.5t113.5 57.5q20 0 30 -2l31 -6l110 -33l23 -5l25 -1q30 0 48.5 18.5t27.5 56.5h88q-16 -110 -65 -173.5t-122 -63.5q-17 0 -26 2l-25 6l-121 35l-16 4l-17 2q-31 0 -52 -18t-30 -54z" />
    <glyph glyph-name="odieresis" unicode="&#x1ecd;" horiz-adv-x="979" 
d="M356 590v-27q0 -267 27 -328t104 -61q80 0 108 56q14 29 21 101t7 193v47v66q0 228 -29 285q-27 59 -105 59q-75 0 -104 -54t-29 -257v-80zM82 578q0 349 90.5 479.5t316.5 130.5q228 0 318 -129.5t90 -480.5q0 -349 -90 -479t-318 -130q-225 0 -316 129t-91 480z
M376 -390v237h220v-237h-220z" />
    <glyph glyph-name="ô" unicode="&#xf4;" horiz-adv-x="979" 
d="M356 590v-27q0 -267 27 -328t104 -61q80 0 108 56q14 29 21 101t7 193v47v66q0 228 -29 285q-27 59 -105 59q-75 0 -104 -54t-29 -257v-80zM82 578q0 349 90.5 479.5t316.5 130.5q228 0 318 -129.5t90 -480.5q0 -349 -90 -479t-318 -130q-225 0 -316 129t-91 480z
M213 1280l174 285h204l174 -285h-124l-152 150l-152 -150h-124z" />
    <glyph glyph-name="uni1ED3" unicode="&#x1ed3;" horiz-adv-x="979" 
d="M356 590v-27q0 -267 27 -328t104 -61q80 0 108 56q14 29 21 101t7 193v47v66q0 228 -29 285q-27 59 -105 59q-75 0 -104 -54t-29 -257v-80zM82 578q0 349 90.5 479.5t316.5 130.5q228 0 318 -129.5t90 -480.5q0 -349 -90 -479t-318 -130q-225 0 -316 129t-91 480z
M213 1280l174 285h204l174 -285h-124l-152 150l-152 -150h-124zM840 1491h-125l-305 285h256z" />
    <glyph glyph-name="uni1ED1" unicode="&#x1ed1;" horiz-adv-x="979" 
d="M356 590v-27q0 -267 27 -328t104 -61q80 0 108 56q14 29 21 101t7 193v47v66q0 228 -29 285q-27 59 -105 59q-75 0 -104 -54t-29 -257v-80zM82 578q0 349 90.5 479.5t316.5 130.5q228 0 318 -129.5t90 -480.5q0 -349 -90 -479t-318 -130q-225 0 -316 129t-91 480z
M213 1280l174 285h204l174 -285h-124l-152 150l-152 -150h-124zM832 1776h256l-305 -285h-125z" />
    <glyph glyph-name="uni1ED5" unicode="&#x1ed5;" horiz-adv-x="979" 
d="M356 590v-27q0 -267 27 -328t104 -61q80 0 108 56q14 29 21 101t7 193v47v66q0 228 -29 285q-27 59 -105 59q-75 0 -104 -54t-29 -257v-80zM82 578q0 349 90.5 479.5t316.5 130.5q228 0 318 -129.5t90 -480.5q0 -349 -90 -479t-318 -130q-225 0 -316 129t-91 480z
M213 1280l174 285h204l174 -285h-124l-152 150l-152 -150h-124zM713 1752h-116v19q0 77 41.5 121t121.5 44q77 0 120.5 -43t43.5 -114q0 -27 -6 -50t-18 -43q-14 -25 -44 -59t-39 -47q-14 -18 -20.5 -40t-6.5 -49v-7l1 -11h-114l-1 15v17q0 21 2 38.5t8 33.5q10 31 37 65
l20 25q52 60 52 117q0 31 -11 45.5t-28 14.5q-19 0 -31 -17t-12 -57v-18z" />
    <glyph glyph-name="uni1ED7" unicode="&#x1ed7;" horiz-adv-x="979" 
d="M356 590v-27q0 -267 27 -328t104 -61q80 0 108 56q14 29 21 101t7 193v47v66q0 228 -29 285q-27 59 -105 59q-75 0 -104 -54t-29 -257v-80zM82 578q0 349 90.5 479.5t316.5 130.5q228 0 318 -129.5t90 -480.5q0 -349 -90 -479t-318 -130q-225 0 -316 129t-91 480z
M213 1280l174 285h204l174 -285h-124l-152 150l-152 -150h-124zM342 1586h-88q20 117 65.5 174.5t113.5 57.5q20 0 30 -2l31 -6l110 -33l23 -5l25 -1q30 0 48.5 18.5t27.5 56.5h88q-16 -110 -65 -173.5t-122 -63.5q-17 0 -26 2l-25 6l-121 35l-16 4l-17 2q-31 0 -52 -18
t-30 -54z" />
    <glyph glyph-name="ônang" unicode="&#x1ed9;" horiz-adv-x="979" 
d="M356 590v-27q0 -267 27 -328t104 -61q80 0 108 56q14 29 21 101t7 193v47v66q0 228 -29 285q-27 59 -105 59q-75 0 -104 -54t-29 -257v-80zM82 578q0 349 90.5 479.5t316.5 130.5q228 0 318 -129.5t90 -480.5q0 -349 -90 -479t-318 -130q-225 0 -316 129t-91 480z
M213 1280l174 285h204l174 -285h-124l-152 150l-152 -150h-124zM376 -390v237h220v-237h-220z" />
    <glyph glyph-name="uhuyen" unicode="&#xf9;" horiz-adv-x="991" 
d="M877 1157v-1157h-263v115q-40 -72 -103 -109q-29 -17 -65 -27t-75 -10q-127 0 -192.5 71.5t-65.5 207.5v909h258v-756q0 -116 26 -159t88 -43q66 0 94.5 49t28.5 170v739h269zM637 1280h-125l-305 285h256z" />
    <glyph glyph-name="uacute" unicode="&#xfa;" horiz-adv-x="991" 
d="M877 1157v-1157h-263v115q-40 -72 -103 -109q-29 -17 -65 -27t-75 -10q-127 0 -192.5 71.5t-65.5 207.5v909h258v-756q0 -116 26 -159t88 -43q66 0 94.5 49t28.5 170v739h269zM355 1280l174 285h256l-305 -285h-125z" />
    <glyph glyph-name="uni1EE7" unicode="&#x1ee7;" horiz-adv-x="991" 
d="M877 1157v-1157h-263v115q-40 -72 -103 -109q-29 -17 -65 -27t-75 -10q-127 0 -192.5 71.5t-65.5 207.5v909h258v-756q0 -116 26 -159t88 -43q66 0 94.5 49t28.5 170v739h269zM456 1531h-116v19q0 77 41.5 121t121.5 44q77 0 120.5 -43t43.5 -114q0 -27 -6 -50t-18 -43
q-14 -25 -44 -59t-39 -47q-14 -18 -20.5 -40t-6.5 -49v-7l1 -11h-114l-1 15v17q0 21 2 38.5t8 33.5q10 31 37 65l20 25q52 60 52 117q0 31 -11 45.5t-28 14.5q-19 0 -31 -17t-12 -57v-18z" />
    <glyph glyph-name="utilde" unicode="&#x169;" horiz-adv-x="991" 
d="M877 1157v-1157h-263v115q-40 -72 -103 -109q-29 -17 -65 -27t-75 -10q-127 0 -192.5 71.5t-65.5 207.5v909h258v-756q0 -116 26 -159t88 -43q66 0 94.5 49t28.5 170v739h269zM296 1292h-88q20 117 65.5 174.5t113.5 57.5q20 0 30 -2l31 -6l110 -33l23 -5l25 -1
q30 0 48.5 18.5t27.5 56.5h88q-16 -110 -65 -173.5t-122 -63.5q-17 0 -26 2l-25 6l-121 35l-16 4l-17 2q-31 0 -52 -18t-30 -54z" />
    <glyph glyph-name="uni1EE5" unicode="&#x1ee5;" horiz-adv-x="991" 
d="M877 1157v-1157h-263v115q-40 -72 -103 -109q-29 -17 -65 -27t-75 -10q-127 0 -192.5 71.5t-65.5 207.5v909h258v-756q0 -116 26 -159t88 -43q66 0 94.5 49t28.5 170v739h269zM376 -390v237h220v-237h-220z" />
    <glyph glyph-name="u(" unicode="&#x1b0;" horiz-adv-x="991" 
d="M877 991v-991h-263v115q-40 -72 -103 -109q-29 -17 -65 -27t-75 -10q-127 0 -192.5 71.5t-65.5 207.5v909h258v-756q0 -116 26 -159t88 -43q66 0 94.5 49t28.5 170v739h269v-71q6 6 12 13q29 38 29 97v12h-107v213h199v-214q0 -98 -53 -160q-32 -38 -80 -56z" />
    <glyph glyph-name="uni1EEB" unicode="&#x1eeb;" horiz-adv-x="991" 
d="M877 1157v-1157h-263v115q-40 -72 -103 -109q-29 -17 -65 -27t-75 -10q-127 0 -192.5 71.5t-65.5 207.5v909h258v-756q0 -116 26 -159t88 -43q66 0 94.5 49t28.5 170v739h269zM637 1280h-125l-305 285h256zM811 976v80q49 5 78 43t29 97v12h-107v213h199v-214
q0 -98 -53 -160t-146 -71z" />
    <glyph glyph-name="uni1EE9" unicode="&#x1ee9;" horiz-adv-x="991" 
d="M355 1280l174 285h256l-305 -285h-125zM877 991v-991h-263v115q-40 -72 -103 -109q-29 -17 -65 -27t-75 -10q-127 0 -192.5 71.5t-65.5 207.5v909h258v-756q0 -116 26 -159t88 -43q66 0 94.5 49t28.5 170v739h269v-71q6 6 12 13q29 38 29 97v12h-107v213h199v-214
q0 -98 -53 -160q-32 -38 -80 -56z" />
    <glyph glyph-name="uni1EED" unicode="&#x1eed;" horiz-adv-x="991" 
d="M456 1531h-116v19q0 77 41.5 121t121.5 44q77 0 120.5 -43t43.5 -114q0 -27 -6 -50t-18 -43q-14 -25 -44 -59t-39 -47q-14 -18 -20.5 -40t-6.5 -49v-7l1 -11h-114l-1 15v17q0 21 2 38.5t8 33.5q10 31 37 65l20 25q52 60 52 117q0 31 -11 45.5t-28 14.5q-19 0 -31 -17
t-12 -57v-18zM877 991v-991h-263v115q-40 -72 -103 -109q-29 -17 -65 -27t-75 -10q-127 0 -192.5 71.5t-65.5 207.5v909h258v-756q0 -116 26 -159t88 -43q66 0 94.5 49t28.5 170v739h269v-71q6 6 12 13q29 38 29 97v12h-107v213h199v-214q0 -98 -53 -160q-32 -38 -80 -56z
" />
    <glyph glyph-name="uni1EEF" unicode="&#x1eef;" horiz-adv-x="991" 
d="M296 1292h-88q20 117 65.5 174.5t113.5 57.5q20 0 30 -2l31 -6l110 -33l23 -5l25 -1q30 0 48.5 18.5t27.5 56.5h88q-16 -110 -65 -173.5t-122 -63.5q-17 0 -26 2l-25 6l-121 35l-16 4l-17 2q-31 0 -52 -18t-30 -54zM877 991v-991h-263v115q-40 -72 -103 -109
q-29 -17 -65 -27t-75 -10q-127 0 -192.5 71.5t-65.5 207.5v909h258v-756q0 -116 26 -159t88 -43q66 0 94.5 49t28.5 170v739h269v-71q6 6 12 13q29 38 29 97v12h-107v213h199v-214q0 -98 -53 -160q-32 -38 -80 -56z" />
    <glyph glyph-name="uni1EF1" unicode="&#x1ef1;" horiz-adv-x="991" 
d="M376 -390v237h220v-237h-220zM877 991v-991h-263v115q-40 -72 -103 -109q-29 -17 -65 -27t-75 -10q-127 0 -192.5 71.5t-65.5 207.5v909h258v-756q0 -116 26 -159t88 -43q66 0 94.5 49t28.5 170v739h269v-71q6 6 12 13q29 38 29 97v12h-107v213h199v-214q0 -98 -53 -160
q-32 -38 -80 -56z" />
    <glyph glyph-name="ow" unicode="&#x1a1;" horiz-adv-x="979" 
d="M356 590v-27q0 -267 27 -328t104 -61q80 0 108 56q14 29 21 101t7 193v47v66q0 228 -29 285q-27 59 -105 59q-75 0 -104 -54t-29 -257v-80zM838 1002q59 -139 59 -424q0 -349 -90 -479t-318 -130q-225 0 -316 129t-91 480q0 349 90.5 479.5t316.5 130.5q215 0 308 -115
q16 10 28 26q29 38 29 97v12h-107v213h199v-214q0 -98 -53 -160q-24 -28 -55 -45z" />
    <glyph glyph-name="uni1EDD" unicode="&#x1edd;" horiz-adv-x="979" 
d="M356 590v-27q0 -267 27 -328t104 -61q80 0 108 56q14 29 21 101t7 193v47v66q0 228 -29 285q-27 59 -105 59q-75 0 -104 -54t-29 -257v-80zM630 1280h-125l-305 285h256zM838 1002q59 -139 59 -424q0 -349 -90 -479t-318 -130q-225 0 -316 129t-91 480q0 349 90.5 479.5
t316.5 130.5q215 0 308 -115q16 10 28 26q29 38 29 97v12h-107v213h199v-214q0 -98 -53 -160q-24 -28 -55 -45z" />
    <glyph glyph-name="uni1EDB" unicode="&#x1edb;" horiz-adv-x="979" 
d="M356 590v-27q0 -267 27 -328t104 -61q80 0 108 56q14 29 21 101t7 193v47v66q0 228 -29 285q-27 59 -105 59q-75 0 -104 -54t-29 -257v-80zM348 1280l174 285h256l-305 -285h-125zM838 1002q59 -139 59 -424q0 -349 -90 -479t-318 -130q-225 0 -316 129t-91 480
q0 349 90.5 479.5t316.5 130.5q215 0 308 -115q16 10 28 26q29 38 29 97v12h-107v213h199v-214q0 -98 -53 -160q-24 -28 -55 -45z" />
    <glyph glyph-name="uni1EDF" unicode="&#x1edf;" horiz-adv-x="979" 
d="M356 590v-27q0 -267 27 -328t104 -61q80 0 108 56q14 29 21 101t7 193v47v66q0 228 -29 285q-27 59 -105 59q-75 0 -104 -54t-29 -257v-80zM456 1531h-116v19q0 77 41.5 121t121.5 44q77 0 120.5 -43t43.5 -114q0 -27 -6 -50t-18 -43q-14 -25 -44 -59t-39 -47
q-14 -18 -20.5 -40t-6.5 -49v-7l1 -11h-114l-1 15v17q0 21 2 38.5t8 33.5q10 31 37 65l20 25q52 60 52 117q0 31 -11 45.5t-28 14.5q-19 0 -31 -17t-12 -57v-18zM838 1002q59 -139 59 -424q0 -349 -90 -479t-318 -130q-225 0 -316 129t-91 480q0 349 90.5 479.5t316.5 130.5
q215 0 308 -115q16 10 28 26q29 38 29 97v12h-107v213h199v-214q0 -98 -53 -160q-24 -28 -55 -45z" />
    <glyph glyph-name="uni1EE1" unicode="&#x1ee1;" horiz-adv-x="979" 
d="M356 590v-27q0 -267 27 -328t104 -61q80 0 108 56q14 29 21 101t7 193v47v66q0 228 -29 285q-27 59 -105 59q-75 0 -104 -54t-29 -257v-80zM296 1292h-88q20 117 65.5 174.5t113.5 57.5q20 0 30 -2l31 -6l110 -33l23 -5l25 -1q30 0 48.5 18.5t27.5 56.5h88
q-16 -110 -65 -173.5t-122 -63.5q-17 0 -26 2l-25 6l-121 35l-16 4l-17 2q-31 0 -52 -18t-30 -54zM838 1002q59 -139 59 -424q0 -349 -90 -479t-318 -130q-225 0 -316 129t-91 480q0 349 90.5 479.5t316.5 130.5q215 0 308 -115q16 10 28 26q29 38 29 97v12h-107v213h199
v-214q0 -98 -53 -160q-24 -28 -55 -45z" />
    <glyph glyph-name="uni1EE3" unicode="&#x1ee3;" horiz-adv-x="979" 
d="M356 590v-27q0 -267 27 -328t104 -61q80 0 108 56q14 29 21 101t7 193v47v66q0 228 -29 285q-27 59 -105 59q-75 0 -104 -54t-29 -257v-80zM376 -390v237h220v-237h-220zM838 1002q59 -139 59 -424q0 -349 -90 -479t-318 -130q-225 0 -316 129t-91 480q0 349 90.5 479.5
t316.5 130.5q215 0 308 -115q16 10 28 26q29 38 29 97v12h-107v213h199v-214q0 -98 -53 -160q-24 -28 -55 -45z" />
    <glyph glyph-name="yhuyen" unicode="&#x1ef3;" horiz-adv-x="909" 
d="M176 -379v200h17l26 -1q57 0 83 18.5t26 59.5l-3 31l-3 18t-5 17l-297 1193h283l160 -835l155 835h271l-301 -1266q-39 -165 -106 -221.5t-212 -56.5h-16q-9 0 -16.5 0.5t-13.5 1.5zM573 1280h-125l-305 285h256z" />
    <glyph glyph-name="ysac" unicode="&#xfd;" horiz-adv-x="909" 
d="M176 -379v200h17l26 -1q57 0 83 18.5t26 59.5l-3 31l-3 18t-5 17l-297 1193h283l160 -835l155 835h271l-301 -1266q-39 -165 -106 -221.5t-212 -56.5h-16q-9 0 -16.5 0.5t-13.5 1.5zM355 1280l174 285h256l-305 -285h-125z" />
    <glyph glyph-name="yhoi" unicode="&#x1ef7;" horiz-adv-x="909" 
d="M176 -379v200h17l26 -1q57 0 83 18.5t26 59.5l-3 31l-3 18t-5 17l-297 1193h283l160 -835l155 835h271l-301 -1266q-39 -165 -106 -221.5t-212 -56.5h-16q-9 0 -16.5 0.5t-13.5 1.5zM428 1531h-116v19q0 77 41.5 121t121.5 44q77 0 120.5 -43t43.5 -114q0 -27 -6 -50
t-18 -43q-14 -25 -44 -59t-39 -47q-14 -18 -20.5 -40t-6.5 -49v-7l1 -11h-114l-1 15v17q0 21 2 38.5t8 33.5q10 31 37 65l20 25q52 60 52 117q0 31 -11 45.5t-28 14.5q-19 0 -31 -17t-12 -57v-18z" />
    <glyph glyph-name="ynga" unicode="&#x1ef9;" horiz-adv-x="909" 
d="M176 -379v200h17l26 -1q57 0 83 18.5t26 59.5l-3 31l-3 18t-5 17l-297 1193h283l160 -835l155 835h271l-301 -1266q-39 -165 -106 -221.5t-212 -56.5h-16q-9 0 -16.5 0.5t-13.5 1.5zM296 1292h-88q20 117 65.5 174.5t113.5 57.5q20 0 30 -2l31 -6l110 -33l23 -5l25 -1
q30 0 48.5 18.5t27.5 56.5h88q-16 -110 -65 -173.5t-122 -63.5q-17 0 -26 2l-25 6l-121 35l-16 4l-17 2q-31 0 -52 -18t-30 -54z" />
    <glyph glyph-name="ynang" unicode="&#x1ef5;" horiz-adv-x="909" 
d="M176 -379v200h17l26 -1q57 0 83 18.5t26 59.5l-3 31l-3 18t-5 17l-297 1193h283l160 -835l155 835h271l-301 -1266q-39 -165 -106 -221.5t-212 -56.5h-16q-9 0 -16.5 0.5t-13.5 1.5zM615 -390v237h220v-237h-220z" />
  </font>
</defs>
</svg>
